<svg width="292" height="128" viewBox="0 0 292 128" fill="none" xmlns="http://www.w3.org/2000/svg">
<mask id="path-1-outside-1_120_73" maskUnits="userSpaceOnUse" x="5" y="10" width="286" height="63" fill="black">
<rect fill="white" x="5" y="10" width="286" height="63"/>
<path d="M30.5528 71.2643C26.4788 71.2643 22.3346 70.9834 18.1202 70.4214C13.976 69.9298 10.5342 69.2625 7.79485 68.4196C8.07581 65.4695 8.28653 61.0794 8.42701 55.2495C8.63773 49.3493 8.74309 43.6598 8.74309 38.181C8.74309 26.5913 8.18117 19.4619 7.05732 16.7928C9.86694 15.9499 13.379 15.2826 17.5934 14.7909C21.8078 14.229 25.9871 13.948 30.1313 13.948C37.3661 13.948 42.88 15.2475 46.673 17.8464C50.5362 20.375 52.4678 24.0276 52.4678 28.8039C52.4678 31.1921 51.6952 33.4047 50.1499 35.4416C48.6748 37.4786 46.6028 39.1644 43.9336 40.499C47.4456 41.9038 50.185 43.8705 52.1518 46.3992C54.1185 48.8576 55.1019 51.6672 55.1019 54.828C55.1019 60.0961 52.9595 64.17 48.6748 67.0499C44.4604 69.8595 38.4197 71.2643 30.5528 71.2643ZM22.0186 39.1293C24.7579 38.3566 28.4104 38.0405 32.9761 38.181C34.5916 37.1977 35.8559 35.9685 36.7691 34.4934C37.7524 33.0183 38.2441 31.5082 38.2441 29.9629C38.2441 25.2568 35.1535 22.9037 28.9724 22.9037C26.7949 22.9037 24.6526 23.2198 22.5454 23.852C22.2644 29.5414 22.0888 34.6339 22.0186 39.1293ZM29.3938 64.4159C37.05 64.4159 40.8781 61.2199 40.8781 54.828C40.8781 52.5101 40.1406 50.4731 38.6656 48.7171C37.1905 46.9611 35.0833 45.5563 32.3439 44.5027C29.9557 44.5027 26.4788 45.3807 21.9132 47.1367C21.9132 52.6857 22.0537 58.0591 22.3346 63.2569C24.7931 64.0296 27.1461 64.4159 29.3938 64.4159ZM74.0833 70.6322C71.7653 70.6322 69.0259 70.4214 65.8651 70C66.3568 62.9759 66.6026 55.4953 66.6026 47.5581C66.6026 43.6949 66.4622 40.7448 66.1812 38.7078C65.9705 36.6709 65.5842 35.0553 65.0222 33.8612C64.5306 32.6671 63.6877 31.4379 62.4936 30.1736C63.9686 28.839 65.549 27.8908 67.2348 27.3289C68.9908 26.6967 70.5361 26.3806 71.8707 26.3806C77.0685 26.3806 79.8781 28.9093 80.2996 33.9666C81.9853 31.7891 83.7765 29.998 85.673 28.5932C87.5695 27.1884 89.7469 26.1348 92.2053 25.4324C92.697 27.0479 93.1185 29.3307 93.4697 32.2808C93.8911 35.1607 94.1018 37.8298 94.1018 40.2882C92.8375 40.0775 91.6434 39.9722 90.5196 39.9722C88.4123 39.9722 86.4456 40.2531 84.6193 40.8151C82.7931 41.3067 81.2829 41.974 80.0888 42.8169C79.9484 47.3123 79.8781 51.1053 79.8781 54.1959C79.8781 61.5711 80.5805 66.8392 81.9853 70C80.0186 70.4214 77.3846 70.6322 74.0833 70.6322ZM107.973 71.159C104.531 71.159 101.897 70.281 100.071 68.5249C98.3152 66.6987 97.4372 64.2754 97.4372 61.2551C97.4372 56.7597 99.4741 53.2827 103.548 50.8243C107.622 48.2957 113.838 46.6801 122.197 45.9777C121.986 43.3788 121.249 41.5175 119.984 40.3936C118.72 39.2698 116.718 38.7078 113.979 38.7078C111.52 38.7078 109.062 39.059 106.604 39.7614C104.145 40.4638 102.038 41.4121 100.282 42.6062L99.439 36.3899C101.687 33.2993 104.602 30.8058 108.184 28.9093C111.766 26.9425 115.419 25.9592 119.141 25.9592C124.41 25.9592 128.448 27.1884 131.258 29.6468C134.068 32.035 135.472 35.5119 135.472 40.0775C135.472 42.6062 135.297 45.4509 134.946 48.6118C134.665 51.9833 134.524 54.4768 134.524 56.0924C134.524 58.6913 134.805 60.7634 135.367 62.3087C135.929 63.7837 137.018 65.3992 138.633 67.1553C135.051 69.403 131.153 70.7375 126.938 71.159C125.042 69.9649 123.602 68.2791 122.618 66.1016C120.16 67.6469 117.631 68.8762 115.032 69.7893C112.434 70.7024 110.08 71.159 107.973 71.159ZM113.768 63.9944C116.367 63.6432 118.931 62.6599 121.459 61.0443V59.9907C121.459 59.1478 121.495 58.2347 121.565 57.2513C121.635 56.1977 121.705 55.3548 121.776 54.7227L122.092 51.2458C118.58 51.597 115.91 52.4399 114.084 53.7744C112.258 55.0388 111.345 56.7245 111.345 58.8318C111.345 59.8151 111.556 60.7985 111.977 61.7819C112.469 62.7652 113.066 63.5027 113.768 63.9944ZM157.548 70.6322C153.966 70.6322 150.945 70.4214 148.487 70C148.979 62.9759 149.224 55.4953 149.224 47.5581C149.224 43.6949 149.084 40.7448 148.803 38.7078C148.592 36.6709 148.206 35.0553 147.644 33.8612C147.152 32.6671 146.309 31.4379 145.115 30.1736C146.731 28.839 148.452 27.8908 150.278 27.3289C152.175 26.6967 153.86 26.3806 155.335 26.3806C159.55 26.3806 162.008 28.4527 162.711 32.5969C164.607 30.4897 166.749 28.8742 169.138 27.7503C171.596 26.5562 174.195 25.9592 176.934 25.9592C185.153 25.9592 189.262 30.8058 189.262 40.499L189.051 47.1367L188.84 54.1959C188.84 61.5711 189.543 66.8392 190.947 70C188.981 70.4214 186.066 70.6322 182.202 70.6322C179.744 70.6322 177.286 70.4214 174.827 70C175.319 62.8355 175.565 55.0388 175.565 46.6099C175.565 43.8003 175.073 41.7984 174.09 40.6043C173.106 39.34 171.526 38.7078 169.348 38.7078C166.609 38.7078 164.432 39.4102 162.816 40.8151C162.605 44.4676 162.5 48.9278 162.5 54.1959C162.5 61.5711 163.202 66.8392 164.607 70C162.64 70.4214 160.287 70.6322 157.548 70.6322ZM216.307 71.2643C210.407 71.2643 205.947 69.4381 202.926 65.7856C199.976 62.0628 198.501 56.6192 198.501 49.4546C198.501 41.7282 200.047 35.8982 203.137 31.9647C206.228 27.961 210.793 25.9592 216.834 25.9592C221.119 25.9592 224.982 27.083 228.424 29.3307C228.143 22.9388 227.511 17.9869 226.527 14.4748C230.671 13.07 235.975 12.3676 242.437 12.3676C241.594 20.3048 241.172 33.7208 241.172 52.6155C241.172 55.8465 241.453 58.4103 242.015 60.3068C242.577 62.1331 243.666 64.1349 245.281 66.3124C243.525 67.5767 241.524 68.6303 239.276 69.4732C237.098 70.3161 234.886 70.878 232.638 71.159C230.882 69.8244 229.653 68.1386 228.951 66.1016C227.054 67.7172 224.982 68.9815 222.734 69.8946C220.557 70.8078 218.414 71.2643 216.307 71.2643ZM219.995 63.9944C222.734 63.6432 225.438 62.414 228.108 60.3068C228.108 58.0591 228.178 54.6173 228.318 49.9814C228.459 45.3456 228.529 41.7984 228.529 39.34C226.281 38.2864 224.104 37.7596 221.997 37.7596C215.464 37.7596 212.198 42.1496 212.198 50.9297C212.198 54.4417 212.901 57.3918 214.305 59.78C215.71 62.0979 217.607 63.5027 219.995 63.9944ZM268.777 71.159C261.261 71.159 255.326 69.8946 250.971 67.366C250.971 65.5397 251.111 63.8891 251.392 62.414C251.744 60.939 252.27 59.3234 252.973 57.5674C254.378 59.2532 256.274 60.6229 258.662 61.6765C261.121 62.6599 263.86 63.1515 266.88 63.1515C271.867 63.1515 274.361 61.9926 274.361 59.6746C274.361 58.621 273.799 57.7781 272.675 57.146C271.551 56.5138 269.655 55.6709 266.986 54.6173C263.895 53.4232 261.296 52.2643 259.189 51.1404C257.152 50.0166 255.361 48.4362 253.816 46.3992C252.341 44.3622 251.603 41.8335 251.603 38.8132C251.603 34.8797 253.289 31.754 256.66 29.4361C260.102 27.1181 264.668 25.9592 270.357 25.9592C273.307 25.9592 276.293 26.205 279.313 26.6967C282.333 27.1181 284.932 27.7152 287.11 28.4878C287.11 30.2438 286.723 32.5267 285.951 35.3363C285.248 38.1459 284.476 40.1829 283.633 41.4472C280.964 39.34 278.33 37.6893 275.731 36.4953C273.132 35.2309 270.884 34.5988 268.988 34.5988C268.145 34.8095 267.407 35.1958 266.775 35.7577C266.213 36.2494 265.932 36.8113 265.932 37.4435C265.932 38.3566 266.529 39.1995 267.723 39.9722C268.917 40.6746 270.814 41.5526 273.413 42.6062C276.503 43.8705 279.067 45.0646 281.104 46.1885C283.141 47.3123 284.897 48.8225 286.372 50.719C287.847 52.6155 288.585 54.9334 288.585 57.6728C288.585 61.9575 286.829 65.2939 283.317 67.6821C279.875 70 275.028 71.159 268.777 71.159Z"/>
</mask>
<path d="M18.1202 70.4214L18.3185 68.9346L18.3077 68.9332L18.2969 68.9319L18.1202 70.4214ZM7.79485 68.4196L6.3016 68.2774L6.18574 69.4939L7.35372 69.8533L7.79485 68.4196ZM8.42701 55.2495L6.92797 55.1959L6.92766 55.2046L6.92745 55.2134L8.42701 55.2495ZM7.05732 16.7928L6.6263 15.356L5.02687 15.8359L5.67487 17.3749L7.05732 16.7928ZM17.5934 14.7909L17.7672 16.2808L17.7794 16.2794L17.7916 16.2778L17.5934 14.7909ZM46.673 17.8464L45.8251 19.0838L45.8382 19.0928L45.8515 19.1014L46.673 17.8464ZM50.1499 35.4417L48.9549 34.5351L48.9448 34.5484L48.935 34.5619L50.1499 35.4417ZM43.9336 40.499L43.2628 39.1573L40.2752 40.6511L43.3765 41.8917L43.9336 40.499ZM52.1518 46.3992L50.9677 47.3201L50.974 47.3282L50.9804 47.3362L52.1518 46.3992ZM48.6748 67.0499L49.5069 68.298L49.5116 68.2948L48.6748 67.0499ZM22.0186 39.1293L20.5187 39.1058L20.4873 41.1197L22.4257 40.573L22.0186 39.1293ZM32.9761 38.181L32.93 39.6803L33.3754 39.694L33.756 39.4623L32.9761 38.181ZM36.7691 34.4934L35.521 33.6614L35.507 33.6824L35.4937 33.7039L36.7691 34.4934ZM22.5454 23.852L22.1143 22.4152L21.0994 22.7197L21.0472 23.778L22.5454 23.852ZM32.3439 44.5027L32.8824 43.1027L32.6224 43.0027H32.3439V44.5027ZM21.9132 47.1367L21.3747 45.7367L20.4132 46.1065V47.1367H21.9132ZM22.3346 63.2569L20.8368 63.3379L20.8929 64.3761L21.8849 64.6879L22.3346 63.2569ZM30.5528 69.7643C26.5479 69.7643 22.47 69.4881 18.3185 68.9346L17.922 71.9083C22.1993 72.4786 26.4097 72.7643 30.5528 72.7643V69.7643ZM18.2969 68.9319C14.2058 68.4465 10.8598 67.7933 8.23597 66.9859L7.35372 69.8533C10.2086 70.7317 13.7462 71.413 17.9435 71.911L18.2969 68.9319ZM9.28809 68.5618C9.57425 65.5572 9.78589 61.1241 9.92658 55.2856L6.92745 55.2134C6.78717 61.0348 6.57737 65.3818 6.3016 68.2774L9.28809 68.5618ZM9.92605 55.303C10.1374 49.3863 10.2431 43.679 10.2431 38.181H7.24309C7.24309 43.6406 7.1381 49.3122 6.92797 55.1959L9.92605 55.303ZM10.2431 38.181C10.2431 32.3677 10.1024 27.6441 9.81701 24.0238C9.5366 20.4661 9.10614 17.7933 8.43977 16.2107L5.67487 17.3749C6.13234 18.4614 6.54477 20.6879 6.82629 24.2596C7.10287 27.7687 7.24309 32.4047 7.24309 38.181H10.2431ZM7.48834 18.2295C10.1859 17.4202 13.605 16.7664 17.7672 16.2808L17.4196 13.301C13.1529 13.7988 9.54796 14.4795 6.6263 15.356L7.48834 18.2295ZM17.7916 16.2778C21.9421 15.7244 26.0551 15.448 30.1313 15.448V12.448C25.9192 12.448 21.6736 12.7336 17.3952 13.3041L17.7916 16.2778ZM30.1313 15.448C37.2237 15.448 42.3875 16.7284 45.8251 19.0838L47.5208 16.609C43.3725 13.7666 37.5085 12.448 30.1313 12.448V15.448ZM45.8515 19.1014C49.2741 21.3417 50.9678 24.5126 50.9678 28.8039H53.9678C53.9678 23.5425 51.7984 19.4084 47.4945 16.5913L45.8515 19.1014ZM50.9678 28.8039C50.9678 30.8409 50.3172 32.7393 48.9549 34.5351L51.3449 36.3482C53.0732 34.07 53.9678 31.5433 53.9678 28.8039H50.9678ZM48.935 34.5619C47.6257 36.37 45.7562 37.9106 43.2628 39.1573L44.6044 41.8406C47.4493 40.4182 49.724 38.5872 51.3648 36.3214L48.935 34.5619ZM43.3765 41.8917C46.6864 43.2156 49.1918 45.0367 50.9677 47.3201L53.3358 45.4783C51.1782 42.7043 48.2049 40.5919 44.4907 39.1063L43.3765 41.8917ZM50.9804 47.3362C52.7335 49.5275 53.6019 52.0063 53.6019 54.828H56.6019C56.6019 51.3281 55.5035 48.1877 53.3231 45.4621L50.9804 47.3362ZM53.6019 54.828C53.6019 59.6088 51.6981 63.2105 47.8381 65.805L49.5116 68.2948C54.2209 65.1295 56.6019 60.5833 56.6019 54.828H53.6019ZM47.8428 65.8018C43.9763 68.3795 38.2752 69.7643 30.5528 69.7643V72.7643C38.5643 72.7643 44.9446 71.3395 49.5069 68.298L47.8428 65.8018ZM22.4257 40.573C24.9562 39.8592 28.4367 39.5421 32.93 39.6803L33.0222 36.6817C28.3842 36.539 24.5597 36.854 21.6114 37.6856L22.4257 40.573ZM33.756 39.4623C35.5545 38.3676 36.9962 36.9763 38.0445 35.2829L35.4937 33.7039C34.7157 34.9607 33.6287 36.0278 32.1962 36.8997L33.756 39.4623ZM38.0171 35.3255C39.1399 33.6413 39.7441 31.8462 39.7441 29.9629H36.7441C36.7441 31.1702 36.365 32.3954 35.521 33.6614L38.0171 35.3255ZM39.7441 29.9629C39.7441 27.2522 38.8328 24.9962 36.8348 23.475C34.9142 22.0127 32.2108 21.4037 28.9724 21.4037V24.4037C31.9151 24.4037 33.8476 24.9712 35.0175 25.862C36.1102 26.6938 36.7441 27.9674 36.7441 29.9629H39.7441ZM28.9724 21.4037C26.6474 21.4037 24.3599 21.7415 22.1143 22.4152L22.9764 25.2887C24.9452 24.698 26.9424 24.4037 28.9724 24.4037V21.4037ZM21.0472 23.778C20.7656 29.4801 20.5893 34.5899 20.5187 39.1058L23.5184 39.1527C23.5883 34.6779 23.7632 29.6028 24.0435 23.9259L21.0472 23.778ZM29.3938 65.9159C33.3938 65.9159 36.6731 65.0866 38.9684 63.1704C41.3155 61.2108 42.3781 58.3335 42.3781 54.828H39.3781C39.3781 57.7145 38.5267 59.6311 37.0457 60.8675C35.5129 62.1471 33.05 62.9159 29.3938 62.9159V65.9159ZM42.3781 54.828C42.3781 52.1613 41.5188 49.7817 39.8141 47.7523L37.517 49.6819C38.7624 51.1645 39.3781 52.8589 39.3781 54.828H42.3781ZM39.8141 47.7523C38.1363 45.755 35.7939 44.2225 32.8824 43.1027L31.8055 45.9027C34.3727 46.8901 36.2447 48.1672 37.517 49.6819L39.8141 47.7523ZM32.3439 43.0027C29.6643 43.0027 25.9704 43.9691 21.3747 45.7367L22.4517 48.5367C26.9872 46.7923 30.2472 46.0027 32.3439 46.0027V43.0027ZM20.4132 47.1367C20.4132 52.711 20.5543 58.1114 20.8368 63.3379L23.8325 63.1759C23.553 58.0068 23.4132 52.6605 23.4132 47.1367H20.4132ZM21.8849 64.6879C24.4679 65.4997 26.9731 65.9159 29.3938 65.9159V62.9159C27.3191 62.9159 25.1182 62.5594 22.7844 61.8259L21.8849 64.6879ZM65.8651 70L64.3688 69.8953L64.2704 71.3006L65.6669 71.4868L65.8651 70ZM66.1812 38.7078L64.6892 38.8622L64.6918 38.8875L64.6953 38.9128L66.1812 38.7078ZM65.0222 33.8612L63.6352 34.4324L63.6493 34.4665L63.665 34.4999L65.0222 33.8612ZM62.4936 30.1736L61.4872 29.0613L60.3508 30.0894L61.4031 31.2035L62.4936 30.1736ZM67.2348 27.3289L67.7092 28.7519L67.7261 28.7462L67.7429 28.7402L67.2348 27.3289ZM80.2996 33.9666L78.8047 34.0912L79.125 37.934L81.4856 34.8849L80.2996 33.9666ZM85.673 28.5932L86.5658 29.7985L85.673 28.5932ZM92.2053 25.4324L93.6403 24.9956L93.211 23.585L91.7932 23.9901L92.2053 25.4324ZM93.4697 32.2808L91.9802 32.4581L91.9826 32.4781L91.9855 32.498L93.4697 32.2808ZM94.1018 40.2882L93.8552 41.7678L95.6018 42.0589V40.2882H94.1018ZM84.6193 40.8151L85.0093 42.2635L85.035 42.2565L85.0605 42.2487L84.6193 40.8151ZM80.0888 42.8169L79.2238 41.5915L78.6129 42.0227L78.5896 42.7701L80.0888 42.8169ZM81.9853 70L82.2996 71.4667L84.1066 71.0795L83.356 69.3908L81.9853 70ZM74.0833 69.1322C71.851 69.1322 69.181 68.9288 66.0634 68.5132L65.6669 71.4868C68.8709 71.914 71.6796 72.1322 74.0833 72.1322V69.1322ZM67.3615 70.1047C67.8559 63.0418 68.1026 55.526 68.1026 47.5581H65.1026C65.1026 55.4647 64.8577 62.9101 64.3688 69.8953L67.3615 70.1047ZM68.1026 47.5581C68.1026 43.6748 67.9623 40.643 67.6671 38.5029L64.6953 38.9128C64.962 40.8466 65.1026 43.7151 65.1026 47.5581H68.1026ZM67.6732 38.5535C67.4537 36.4308 67.0415 34.6295 66.3795 33.2225L63.665 34.4999C64.1268 35.4812 64.4873 36.911 64.6892 38.8622L67.6732 38.5535ZM66.4092 33.2901C65.828 31.8786 64.8633 30.4981 63.5841 29.1437L61.4031 31.2035C62.5121 32.3778 63.2331 33.4557 63.6352 34.4324L66.4092 33.2901ZM63.4999 31.2859C64.8395 30.0739 66.2426 29.2407 67.7092 28.7519L66.7605 25.9058C64.8555 26.5408 63.0978 27.6041 61.4872 29.0613L63.4999 31.2859ZM67.7429 28.7402C69.3959 28.1451 70.7633 27.8806 71.8707 27.8806V24.8806C70.309 24.8806 68.5858 25.2483 66.7267 25.9175L67.7429 28.7402ZM71.8707 27.8806C74.2388 27.8806 75.8322 28.4555 76.8728 29.3921C77.9079 30.3237 78.6146 31.81 78.8047 34.0912L81.7944 33.842C81.563 31.0659 80.6542 28.7592 78.8797 27.1622C77.1107 25.5701 74.7003 24.8806 71.8707 24.8806V27.8806ZM81.4856 34.8849C83.1009 32.7985 84.7963 31.1093 86.5658 29.7985L84.7801 27.3879C82.7566 28.8868 80.8697 30.7798 79.1135 33.0483L81.4856 34.8849ZM86.5658 29.7985C88.3059 28.5095 90.3177 27.5317 92.6174 26.8747L91.7932 23.9901C89.1761 24.7378 86.833 25.8672 84.7801 27.3879L86.5658 29.7985ZM90.7703 25.8691C91.2239 27.3595 91.6329 29.5406 91.9802 32.4581L94.9591 32.1035C94.6041 29.1208 94.1701 26.7363 93.6403 24.9956L90.7703 25.8691ZM91.9855 32.498C92.3982 35.3186 92.6018 37.9143 92.6018 40.2882H95.6018C95.6018 37.7454 95.384 35.0027 94.9538 32.0636L91.9855 32.498ZM94.3484 38.8087C93.0137 38.5862 91.7366 38.4722 90.5196 38.4722V41.4722C91.5502 41.4722 92.6613 41.5688 93.8552 41.7678L94.3484 38.8087ZM90.5196 38.4722C88.278 38.4722 86.1613 38.7712 84.1782 39.3814L85.0605 42.2487C86.7299 41.735 88.5466 41.4722 90.5196 41.4722V38.4722ZM84.2294 39.3666C82.2804 39.8913 80.5973 40.6219 79.2238 41.5915L80.9539 44.0424C81.9686 43.3261 83.3058 42.7221 85.0093 42.2635L84.2294 39.3666ZM78.5896 42.7701C78.4488 47.2747 78.3781 51.0844 78.3781 54.1959H81.3781C81.3781 51.1262 81.4479 47.3499 81.5881 42.8638L78.5896 42.7701ZM78.3781 54.1959C78.3781 61.5964 79.0725 67.1395 80.6146 70.6092L83.356 69.3908C82.0885 66.5389 81.3781 61.5459 81.3781 54.1959H78.3781ZM81.671 68.5333C79.852 68.9231 77.3369 69.1322 74.0833 69.1322V72.1322C77.4322 72.1322 80.1852 71.9198 82.2996 71.4667L81.671 68.5333ZM100.071 68.5249L98.9899 69.5646L99.0103 69.5858L99.0315 69.6062L100.071 68.5249ZM103.548 50.8243L104.323 52.1086L104.331 52.1037L104.339 52.0988L103.548 50.8243ZM122.197 45.9777L122.323 47.4725L123.813 47.3472L123.692 45.8565L122.197 45.9777ZM106.604 39.7614L107.016 41.2037H107.016L106.604 39.7614ZM100.282 42.6062L98.7955 42.8077L99.1212 45.2094L101.125 43.8466L100.282 42.6062ZM99.439 36.3899L98.2259 35.5076L97.8717 35.9947L97.9526 36.5914L99.439 36.3899ZM108.184 28.9093L108.886 30.235L108.896 30.2296L108.906 30.2241L108.184 28.9093ZM131.258 29.6468L130.27 30.7757L130.278 30.7827L130.287 30.7897L131.258 29.6468ZM134.946 48.6118L133.455 48.4461L133.452 48.4666L133.451 48.4872L134.946 48.6118ZM135.367 62.3087L133.957 62.8213L133.961 62.832L133.965 62.8427L135.367 62.3087ZM138.633 67.1553L139.43 68.4258L140.958 67.4671L139.737 66.1397L138.633 67.1553ZM126.938 71.159L126.139 72.4283L126.575 72.7028L127.087 72.6515L126.938 71.159ZM122.618 66.1016L123.985 65.4843L123.277 63.9159L121.82 64.8317L122.618 66.1016ZM115.032 69.7893L114.535 68.3741L115.032 69.7893ZM113.768 63.9944L112.908 65.2233L113.388 65.5594L113.969 65.4809L113.768 63.9944ZM121.459 61.0443L122.267 62.3084L122.959 61.866V61.0443H121.459ZM121.565 57.2513L123.061 57.3582L123.061 57.3511L121.565 57.2513ZM121.776 54.7227L123.266 54.8883L123.268 54.8734L123.269 54.8585L121.776 54.7227ZM122.092 51.2458L123.585 51.3816L123.75 49.5725L121.942 49.7532L122.092 51.2458ZM114.084 53.7744L114.938 55.0077L114.954 54.9968L114.969 54.9855L114.084 53.7744ZM111.977 61.7819L110.598 62.3727L110.616 62.4132L110.635 62.4527L111.977 61.7819ZM107.973 69.659C104.777 69.659 102.57 68.8466 101.111 67.4437L99.0315 69.6062C101.225 71.7153 104.286 72.659 107.973 72.659V69.659ZM101.152 67.4853C99.7155 65.9909 98.9372 63.9672 98.9372 61.2551H95.9372C95.9372 64.5836 96.9148 67.4065 98.9899 69.5646L101.152 67.4853ZM98.9372 61.2551C98.9372 57.3215 100.667 54.3148 104.323 52.1086L102.773 49.54C98.2811 52.2507 95.9372 56.1978 95.9372 61.2551H98.9372ZM104.339 52.0988C108.113 49.7563 114.048 48.1678 122.323 47.4725L122.071 44.483C113.629 45.1925 107.131 46.835 102.757 49.5499L104.339 52.0988ZM123.692 45.8565C123.467 43.075 122.657 40.762 120.981 39.2725L118.988 41.5147C119.841 42.2729 120.506 43.6827 120.702 46.099L123.692 45.8565ZM120.981 39.2725C119.316 37.7923 116.871 37.2078 113.979 37.2078V40.2078C116.565 40.2078 118.124 40.7472 118.988 41.5147L120.981 39.2725ZM113.979 37.2078C111.376 37.2078 108.779 37.58 106.191 38.3192L107.016 41.2037C109.345 40.5381 111.665 40.2078 113.979 40.2078V37.2078ZM106.191 38.3192C103.61 39.0568 101.35 40.0657 99.4384 41.3658L101.125 43.8466C102.725 42.7585 104.681 41.8709 107.016 41.2037L106.191 38.3192ZM101.768 42.4046L100.925 36.1884L97.9526 36.5914L98.7955 42.8077L101.768 42.4046ZM100.652 37.2722C102.757 34.3775 105.493 32.0312 108.886 30.235L107.482 27.5836C103.71 29.5804 100.616 32.2211 98.2259 35.5076L100.652 37.2722ZM108.906 30.2241C112.289 28.3667 115.695 27.4592 119.141 27.4592V24.4592C115.142 24.4592 111.243 25.5184 107.462 27.5944L108.906 30.2241ZM119.141 27.4592C124.194 27.4592 127.828 28.6388 130.27 30.7757L132.246 28.5179C129.069 25.738 124.625 24.4592 119.141 24.4592V27.4592ZM130.287 30.7897C132.683 32.8265 133.972 35.8379 133.972 40.0775H136.972C136.972 35.1859 135.452 31.2435 132.229 28.5039L130.287 30.7897ZM133.972 40.0775C133.972 42.5389 133.801 45.327 133.455 48.4461L136.436 48.7774C136.792 45.5749 136.972 42.6735 136.972 40.0775H133.972ZM133.451 48.4872C133.169 51.8656 133.024 54.411 133.024 56.0924H136.024C136.024 54.5426 136.16 52.101 136.44 48.7363L133.451 48.4872ZM133.024 56.0924C133.024 58.7766 133.311 61.0446 133.957 62.8213L136.777 61.796C136.299 60.4821 136.024 58.6059 136.024 56.0924H133.024ZM133.965 62.8427C134.621 64.5626 135.844 66.3393 137.529 68.1708L139.737 66.1397C138.191 64.4592 137.237 63.0049 136.769 61.7747L133.965 62.8427ZM137.836 65.8847C134.45 68.0092 130.773 69.268 126.789 69.6664L127.087 72.6515C131.532 72.2071 135.652 70.7967 139.43 68.4258L137.836 65.8847ZM127.737 69.8896C126.107 68.863 124.856 67.412 123.985 65.4843L121.251 66.719C122.347 69.1462 123.977 71.0668 126.139 72.4283L127.737 69.8896ZM121.82 64.8317C119.451 66.3207 117.023 67.5 114.535 68.3741L115.53 71.2045C118.24 70.2523 120.869 68.9732 123.417 67.3716L121.82 64.8317ZM114.535 68.3741C112.05 69.2474 109.868 69.659 107.973 69.659V72.659C110.293 72.659 112.817 72.1574 115.53 71.2045L114.535 68.3741ZM113.969 65.4809C116.813 65.0966 119.581 64.0243 122.267 62.3084L120.652 59.7803C118.28 61.2954 115.921 62.1899 113.567 62.5079L113.969 65.4809ZM122.959 61.0443V59.9907H119.959V61.0443H122.959ZM122.959 59.9907C122.959 59.1889 122.993 58.3118 123.061 57.3582L120.069 57.1445C119.996 58.1576 119.959 59.1068 119.959 59.9907H122.959ZM123.061 57.3511C123.131 56.3072 123.2 55.4891 123.266 54.8883L120.285 54.557C120.211 55.2206 120.139 56.0882 120.068 57.1516L123.061 57.3511ZM123.269 54.8585L123.585 51.3816L120.598 51.11L120.282 54.5869L123.269 54.8585ZM121.942 49.7532C118.3 50.1174 115.33 51.0063 113.199 52.5633L114.969 54.9855C116.491 53.8734 118.859 53.0765 122.241 52.7383L121.942 49.7532ZM113.23 52.5411C111.025 54.0677 109.845 56.2016 109.845 58.8318H112.845C112.845 57.2475 113.49 56.0098 114.938 55.0077L113.23 52.5411ZM109.845 58.8318C109.845 60.0355 110.104 61.2192 110.598 62.3727L113.356 61.191C113.007 60.3778 112.845 59.5947 112.845 58.8318H109.845ZM110.635 62.4527C111.208 63.5978 111.951 64.5537 112.908 65.2233L114.628 62.7656C114.18 62.4518 113.729 61.9326 113.319 61.111L110.635 62.4527ZM148.487 70L146.991 69.8953L146.896 71.2491L148.233 71.4784L148.487 70ZM148.803 38.7078L147.311 38.8622L147.314 38.8875L147.317 38.9128L148.803 38.7078ZM147.644 33.8612L146.257 34.4324L146.271 34.4665L146.287 34.4999L147.644 33.8612ZM145.115 30.1736L144.16 29.0172L142.924 30.0381L144.025 31.2035L145.115 30.1736ZM150.278 27.3289L150.719 28.7625L150.736 28.7574L150.752 28.7519L150.278 27.3289ZM162.711 32.5969L161.232 32.8476L161.75 35.9064L163.826 33.6004L162.711 32.5969ZM169.138 27.7503L169.776 29.1075L169.785 29.1036L169.793 29.0996L169.138 27.7503ZM189.262 40.499L190.761 40.5466L190.762 40.5228V40.499H189.262ZM189.051 47.1367L187.552 47.0891L187.552 47.0919L189.051 47.1367ZM188.84 54.1959L187.341 54.1511L187.34 54.1735V54.1959H188.84ZM190.947 70L191.262 71.4667L193.069 71.0795L192.318 69.3908L190.947 70ZM174.827 70L173.331 69.8973L173.238 71.2494L174.574 71.4784L174.827 70ZM174.09 40.6043L172.906 41.5252L172.918 41.5417L172.932 41.5579L174.09 40.6043ZM162.816 40.8151L161.832 39.6831L161.355 40.0978L161.318 40.7287L162.816 40.8151ZM164.607 70L164.921 71.4667L166.728 71.0795L165.978 69.3908L164.607 70ZM157.548 69.1322C154.017 69.1322 151.088 68.924 148.74 68.5216L148.233 71.4784C150.803 71.9189 153.914 72.1322 157.548 72.1322V69.1322ZM149.983 70.1047C150.478 63.0418 150.724 55.526 150.724 47.5581H147.724C147.724 55.4647 147.48 62.9101 146.991 69.8953L149.983 70.1047ZM150.724 47.5581C150.724 43.6748 150.584 40.643 150.289 38.5029L147.317 38.9128C147.584 40.8466 147.724 43.7151 147.724 47.5581H150.724ZM150.295 38.5535C150.075 36.4308 149.663 34.6295 149.001 33.2225L146.287 34.4999C146.749 35.4812 147.109 36.911 147.311 38.8622L150.295 38.5535ZM149.031 33.2901C148.45 31.8786 147.485 30.4981 146.206 29.1437L144.025 31.2035C145.134 32.3778 145.855 33.4557 146.257 34.4324L149.031 33.2901ZM146.071 31.33C147.549 30.1085 149.098 29.2613 150.719 28.7625L149.837 25.8952C147.805 26.5203 145.912 27.5695 144.16 29.0172L146.071 31.33ZM150.752 28.7519C152.547 28.1538 154.067 27.8806 155.335 27.8806V24.8806C153.653 24.8806 151.803 25.2395 149.804 25.9058L150.752 28.7519ZM155.335 27.8806C157.2 27.8806 158.489 28.3364 159.373 29.0816C160.257 29.8265 160.921 31.0162 161.232 32.8476L164.19 32.3462C163.798 30.0334 162.881 28.115 161.307 26.7877C159.732 25.4609 157.685 24.8806 155.335 24.8806V27.8806ZM163.826 33.6004C165.598 31.6305 167.582 30.1402 169.776 29.1075L168.499 26.3931C165.917 27.6081 163.616 29.3489 161.596 31.5935L163.826 33.6004ZM169.793 29.0996C172.047 28.0049 174.421 27.4592 176.934 27.4592V24.4592C173.968 24.4592 171.145 25.1075 168.482 26.401L169.793 29.0996ZM176.934 27.4592C180.741 27.4592 183.345 28.5701 185.036 30.5641C186.766 32.6056 187.762 35.8287 187.762 40.499H190.762C190.762 35.4761 189.702 31.4292 187.324 28.6241C184.905 25.7715 181.345 24.4592 176.934 24.4592V27.4592ZM187.762 40.4514L187.552 47.0891L190.55 47.1843L190.761 40.5466L187.762 40.4514ZM187.552 47.0919L187.341 54.1511L190.339 54.2406L190.55 47.1815L187.552 47.0919ZM187.34 54.1959C187.34 61.5964 188.035 67.1395 189.577 70.6092L192.318 69.3908C191.051 66.5389 190.34 61.5459 190.34 54.1959H187.34ZM190.633 68.5333C188.825 68.9208 186.038 69.1322 182.202 69.1322V72.1322C186.094 72.1322 189.136 71.9221 191.262 71.4667L190.633 68.5333ZM182.202 69.1322C179.83 69.1322 177.457 68.9289 175.081 68.5216L174.574 71.4784C177.115 71.914 179.658 72.1322 182.202 72.1322V69.1322ZM176.324 70.1027C176.818 62.8987 177.065 55.0673 177.065 46.6099H174.065C174.065 55.0102 173.82 62.7722 173.331 69.8973L176.324 70.1027ZM177.065 46.6099C177.065 43.7039 176.572 41.2585 175.248 39.6508L172.932 41.5579C173.574 42.3383 174.065 43.8966 174.065 46.6099H177.065ZM175.274 39.6834C173.912 37.9331 171.811 37.2078 169.348 37.2078V40.2078C171.241 40.2078 172.3 40.7469 172.906 41.5252L175.274 39.6834ZM169.348 37.2078C166.351 37.2078 163.79 37.9807 161.832 39.6831L163.8 41.947C165.074 40.8398 166.867 40.2078 169.348 40.2078V37.2078ZM161.318 40.7287C161.106 44.4194 161 48.9104 161 54.1959H164C164 48.9453 164.105 44.5157 164.314 40.9014L161.318 40.7287ZM161 54.1959C161 61.5964 161.694 67.1395 163.236 70.6092L165.978 69.3908C164.71 66.5389 164 61.5459 164 54.1959H161ZM164.293 68.5333C162.459 68.9263 160.217 69.1322 157.548 69.1322V72.1322C160.358 72.1322 162.822 71.9166 164.921 71.4667L164.293 68.5333ZM202.926 65.7856L201.751 66.7172L201.76 66.7294L201.77 66.7415L202.926 65.7856ZM203.137 31.9647L204.317 32.8915L204.324 32.8813L203.137 31.9647ZM228.424 29.3307L227.604 30.5866L230.051 32.1847L229.922 29.2649L228.424 29.3307ZM226.527 14.4748L226.046 13.0542L224.7 13.5106L225.083 14.8793L226.527 14.4748ZM242.437 12.3676L243.928 12.526L244.104 10.8676H242.437V12.3676ZM242.015 60.3068L240.577 60.7329L240.579 60.7404L240.582 60.7479L242.015 60.3068ZM245.281 66.3124L246.158 67.5297L247.393 66.6406L246.486 65.4186L245.281 66.3124ZM239.276 69.4732L238.749 68.0687L238.742 68.0715L238.734 68.0743L239.276 69.4732ZM232.638 71.159L231.731 72.3532L232.217 72.7232L232.824 72.6474L232.638 71.159ZM228.951 66.1016L230.369 65.6127L229.652 63.5338L227.978 64.9598L228.951 66.1016ZM222.734 69.8946L222.17 68.5049L222.162 68.5081L222.154 68.5113L222.734 69.8946ZM219.995 63.9944L219.692 65.4636L219.937 65.5141L220.186 65.4823L219.995 63.9944ZM228.108 60.3068L229.037 61.4841L229.608 61.0337V60.3068H228.108ZM228.318 49.9814L226.819 49.936L228.318 49.9814ZM228.529 39.34H230.029V38.3865L229.166 37.9818L228.529 39.34ZM214.305 59.78L213.012 60.5405L213.017 60.549L213.023 60.5575L214.305 59.78ZM216.307 69.7643C210.735 69.7643 206.749 68.055 204.082 64.8297L201.77 66.7415C205.144 70.8212 210.079 72.7643 216.307 72.7643V69.7643ZM204.102 64.8539C201.445 61.5013 200.001 56.4451 200.001 49.4546H197.001C197.001 56.7933 198.507 62.6243 201.751 66.7172L204.102 64.8539ZM200.001 49.4546C200.001 41.8914 201.52 36.451 204.317 32.8915L201.958 31.038C198.573 35.3455 197.001 41.565 197.001 49.4546H200.001ZM204.324 32.8813C207.074 29.3188 211.157 27.4592 216.834 27.4592V24.4592C210.43 24.4592 205.381 26.6032 201.95 31.0482L204.324 32.8813ZM216.834 27.4592C220.84 27.4592 224.416 28.5052 227.604 30.5866L229.244 28.0748C225.548 25.6609 221.397 24.4592 216.834 24.4592V27.4592ZM229.922 29.2649C229.639 22.8304 229.001 17.7455 227.972 14.0704L225.083 14.8793C226.02 18.2282 226.646 23.0473 226.925 29.3966L229.922 29.2649ZM227.009 15.8954C230.943 14.5619 236.068 13.8676 242.437 13.8676V10.8676C235.881 10.8676 230.4 11.5782 226.046 13.0542L227.009 15.8954ZM240.945 12.2092C240.093 20.2331 239.672 33.7196 239.672 52.6155H242.672C242.672 33.7219 243.095 20.3765 243.928 12.526L240.945 12.2092ZM239.672 52.6155C239.672 55.9119 239.957 58.6387 240.577 60.7329L243.453 59.8807C242.95 58.1819 242.672 55.7812 242.672 52.6155H239.672ZM240.582 60.7479C241.21 62.7896 242.399 64.9445 244.077 67.2061L246.486 65.4186C244.933 63.3253 243.945 61.4765 243.449 59.8657L240.582 60.7479ZM244.405 65.0951C242.768 66.2738 240.886 67.2674 238.749 68.0687L239.803 70.8777C242.161 69.9932 244.283 68.8796 246.158 67.5297L244.405 65.0951ZM238.734 68.0743C236.668 68.8743 234.574 69.4053 232.452 69.6706L232.824 72.6474C235.197 72.3507 237.529 71.7578 239.817 70.872L238.734 68.0743ZM233.546 69.9647C232.02 68.8051 230.972 67.3623 230.369 65.6127L227.532 66.5906C228.334 68.9149 229.744 70.8437 231.731 72.3532L233.546 69.9647ZM227.978 64.9598C226.2 66.4743 224.265 67.6537 222.17 68.5049L223.299 71.2843C225.699 70.3093 227.908 68.9601 229.923 67.2435L227.978 64.9598ZM222.154 68.5113C220.138 69.3567 218.193 69.7643 216.307 69.7643V72.7643C218.636 72.7643 220.975 72.2588 223.314 71.2779L222.154 68.5113ZM220.186 65.4823C223.251 65.0893 226.204 63.7211 229.037 61.4841L227.178 59.1295C224.673 61.107 222.218 62.1972 219.804 62.5066L220.186 65.4823ZM229.608 60.3068C229.608 58.0829 229.677 54.66 229.818 50.0269L226.819 49.936C226.678 54.5747 226.608 58.0353 226.608 60.3068H229.608ZM229.818 50.0269C229.958 45.3866 230.029 41.8214 230.029 39.34H227.029C227.029 41.7754 226.959 45.3045 226.819 49.936L229.818 50.0269ZM229.166 37.9818C226.754 36.8513 224.36 36.2596 221.997 36.2596V39.2596C223.848 39.2596 225.809 39.7215 227.892 40.6982L229.166 37.9818ZM221.997 36.2596C218.36 36.2596 215.417 37.5052 213.444 40.1567C211.533 42.7251 210.698 46.3973 210.698 50.9297H213.698C213.698 46.682 214.496 43.7691 215.851 41.9475C217.145 40.209 219.101 39.2596 221.997 39.2596V36.2596ZM210.698 50.9297C210.698 54.6387 211.44 57.8678 213.012 60.5405L215.598 59.0195C214.361 56.9158 213.698 54.2448 213.698 50.9297H210.698ZM213.023 60.5575C214.617 63.1881 216.847 64.8779 219.692 65.4636L220.297 62.5252C218.366 62.1276 216.803 61.0077 215.588 59.0025L213.023 60.5575ZM250.971 67.366H249.471V68.2295L250.218 68.6632L250.971 67.366ZM251.392 62.414L249.933 62.0666L249.925 62.0998L249.919 62.1334L251.392 62.414ZM252.973 57.5674L254.125 56.6071L252.514 54.6744L251.58 57.0103L252.973 57.5674ZM258.662 61.6765L258.057 63.0489L258.081 63.0595L258.105 63.0692L258.662 61.6765ZM272.675 57.146L271.94 58.4533L272.675 57.146ZM266.986 54.6173L267.537 53.222L267.526 53.2181L266.986 54.6173ZM259.189 51.1404L258.464 52.4538L258.474 52.4589L258.483 52.4639L259.189 51.1404ZM253.816 46.3992L252.601 47.2789L252.611 47.2925L252.621 47.3058L253.816 46.3992ZM256.66 29.4361L255.823 28.1919L255.817 28.1959L255.811 28.2L256.66 29.4361ZM279.313 26.6967L279.072 28.1772L279.089 28.18L279.106 28.1823L279.313 26.6967ZM287.11 28.4878H288.61V27.4285L287.611 27.0742L287.11 28.4878ZM285.951 35.3363L284.504 34.9385L284.5 34.9555L284.496 34.9725L285.951 35.3363ZM283.633 41.4472L282.703 42.6245L283.979 43.6318L284.881 42.2793L283.633 41.4472ZM275.731 36.4953L275.075 37.8441L275.089 37.8514L275.104 37.8583L275.731 36.4953ZM268.988 34.5988V33.0988H268.803L268.624 33.1435L268.988 34.5988ZM266.775 35.7577L267.763 36.8866L267.772 36.8788L266.775 35.7577ZM267.723 39.9722L266.908 41.2315L266.935 41.2489L266.963 41.2651L267.723 39.9722ZM273.413 42.6062L273.981 41.2179L273.976 41.2161L273.413 42.6062ZM281.104 46.1885L280.38 47.5018L281.104 46.1885ZM286.372 50.719L287.556 49.7981L286.372 50.719ZM283.317 67.6821L284.155 68.9262L284.16 68.9225L283.317 67.6821ZM268.777 69.659C261.405 69.659 255.764 68.4148 251.724 66.0688L250.218 68.6632C254.887 71.3745 261.118 72.659 268.777 72.659V69.659ZM252.471 67.366C252.471 65.6145 252.606 64.0599 252.866 62.6947L249.919 62.1334C249.617 63.7182 249.471 65.4649 249.471 67.366H252.471ZM252.852 62.7615C253.182 61.3727 253.684 59.8283 254.365 58.1245L251.58 57.0103C250.857 58.8186 250.305 60.5052 249.933 62.0666L252.852 62.7615ZM251.82 58.5277C253.399 60.4218 255.497 61.9194 258.057 63.0489L259.268 60.3041C257.051 59.3263 255.356 58.0846 254.125 56.6071L251.82 58.5277ZM258.105 63.0692C260.764 64.1327 263.696 64.6515 266.88 64.6515V61.6515C264.024 61.6515 261.477 61.187 259.219 60.2838L258.105 63.0692ZM266.88 64.6515C269.443 64.6515 271.577 64.3612 273.123 63.6426C273.915 63.2743 274.613 62.766 275.112 62.07C275.622 61.359 275.861 60.5401 275.861 59.6746H272.861C272.861 59.9681 272.788 60.1634 272.675 60.3216C272.55 60.4948 272.313 60.7108 271.859 60.9221C270.911 61.3624 269.305 61.6515 266.88 61.6515V64.6515ZM275.861 59.6746C275.861 57.9498 274.882 56.6664 273.411 55.8386L271.94 58.4533C272.716 58.8899 272.861 59.2922 272.861 59.6746H275.861ZM273.411 55.8386C272.191 55.1523 270.212 54.278 267.537 53.2221L266.435 56.0126C269.098 57.0638 270.912 57.8753 271.94 58.4533L273.411 55.8386ZM267.526 53.2181C264.472 52.0382 261.933 50.9037 259.895 49.8169L258.483 52.4639C260.66 53.6249 263.318 54.8083 266.445 56.0165L267.526 53.2181ZM259.914 49.827C258.078 48.8141 256.442 47.3793 255.011 45.4926L252.621 47.3058C254.28 49.493 256.227 51.219 258.464 52.4538L259.914 49.827ZM255.031 45.5194C253.776 43.7864 253.103 41.5826 253.103 38.8132H250.103C250.103 42.0845 250.906 44.938 252.601 47.2789L255.031 45.5194ZM253.103 38.8132C253.103 35.3968 254.526 32.7236 257.51 30.6721L255.811 28.2C252.052 30.7844 250.103 34.3626 250.103 38.8132H253.103ZM257.498 30.6802C260.616 28.5805 264.859 27.4592 270.357 27.4592V24.4592C264.477 24.4592 259.588 25.6558 255.823 28.1919L257.498 30.6802ZM270.357 27.4592C273.224 27.4592 276.128 27.698 279.072 28.1772L279.554 25.2162C276.457 24.712 273.391 24.4592 270.357 24.4592V27.4592ZM279.106 28.1823C282.056 28.5939 284.551 29.1714 286.608 29.9015L287.611 27.0742C285.314 26.2589 282.611 25.6424 279.52 25.2111L279.106 28.1823ZM285.61 28.4878C285.61 30.0503 285.262 32.1853 284.504 34.9385L287.397 35.734C288.185 32.868 288.61 30.4374 288.61 28.4878H285.61ZM284.496 34.9725C283.804 37.738 283.081 39.5708 282.385 40.6152L284.881 42.2793C285.87 40.795 286.693 38.5538 287.406 35.7001L284.496 34.9725ZM284.562 40.2699C281.817 38.1024 279.082 36.3843 276.357 35.1322L275.104 37.8583C277.577 38.9944 280.111 40.5776 282.703 42.6245L284.562 40.2699ZM276.387 35.1464C273.681 33.8299 271.199 33.0988 268.988 33.0988V36.0988C270.569 36.0988 272.583 36.6319 275.075 37.8441L276.387 35.1464ZM268.624 33.1435C267.553 33.4113 266.597 33.9094 265.779 34.6366L267.772 36.8788C268.218 36.4822 268.737 36.2077 269.351 36.054L268.624 33.1435ZM265.787 34.6289C264.965 35.3487 264.432 36.2995 264.432 37.4435H267.432C267.432 37.3232 267.462 37.1502 267.763 36.8866L265.787 34.6289ZM264.432 37.4435C264.432 39.1045 265.537 40.344 266.908 41.2315L268.538 38.7128C267.522 38.0551 267.432 37.6088 267.432 37.4435H264.432ZM266.963 41.2651C268.256 42.0256 270.236 42.937 272.849 43.9963L273.976 41.2161C271.391 40.1681 269.579 39.3235 268.484 38.6793L266.963 41.2651ZM272.845 43.9945C275.903 45.2455 278.41 46.4151 280.38 47.5018L281.829 44.8751C279.724 43.7141 277.104 42.4956 273.981 41.2179L272.845 43.9945ZM280.38 47.5018C282.232 48.5241 283.834 49.8986 285.188 51.6399L287.556 49.7981C285.96 47.7463 284.05 46.1005 281.829 44.8751L280.38 47.5018ZM285.188 51.6399C286.43 53.2368 287.085 55.2179 287.085 57.6728H290.085C290.085 54.6489 289.264 51.9941 287.556 49.7981L285.188 51.6399ZM287.085 57.6728C287.085 61.4661 285.57 64.3357 282.473 66.4417L284.16 68.9225C288.087 66.252 290.085 62.4488 290.085 57.6728H287.085ZM282.479 66.4379C279.381 68.5244 274.872 69.659 268.777 69.659V72.659C275.185 72.659 280.369 71.4756 284.155 68.9262L282.479 66.4379Z" fill="black" mask="url(#path-1-outside-1_120_73)"/>
<path d="M28.5528 69.2643C24.4788 69.2643 20.3346 68.9834 16.1202 68.4214C11.976 67.9298 8.53423 67.2625 5.79485 66.4196C6.07581 63.4695 6.28653 59.0794 6.42701 53.2495C6.63773 47.3493 6.74309 41.6598 6.74309 36.181C6.74309 24.5913 6.18117 17.4619 5.05732 14.7928C7.86694 13.9499 11.379 13.2826 15.5934 12.7909C19.8078 12.229 23.9871 11.948 28.1313 11.948C35.3661 11.948 40.88 13.2475 44.673 15.8464C48.5362 18.375 50.4678 22.0276 50.4678 26.8039C50.4678 29.1921 49.6952 31.4047 48.1499 33.4416C46.6748 35.4786 44.6028 37.1644 41.9336 38.499C45.4456 39.9038 48.185 41.8705 50.1518 44.3992C52.1185 46.8576 53.1019 49.6672 53.1019 52.828C53.1019 58.0961 50.9595 62.17 46.6748 65.0499C42.4604 67.8595 36.4197 69.2643 28.5528 69.2643ZM20.0186 37.1293C22.7579 36.3566 26.4104 36.0405 30.9761 36.181C32.5916 35.1977 33.8559 33.9685 34.7691 32.4934C35.7524 31.0183 36.2441 29.5082 36.2441 27.9629C36.2441 23.2568 33.1535 20.9037 26.9724 20.9037C24.7949 20.9037 22.6526 21.2198 20.5454 21.852C20.2644 27.5414 20.0888 32.6339 20.0186 37.1293ZM27.3938 62.4159C35.05 62.4159 38.8781 59.2199 38.8781 52.828C38.8781 50.5101 38.1406 48.4731 36.6656 46.7171C35.1905 44.9611 33.0833 43.5563 30.3439 42.5027C27.9557 42.5027 24.4788 43.3807 19.9132 45.1367C19.9132 50.6857 20.0537 56.0591 20.3346 61.2569C22.7931 62.0296 25.1461 62.4159 27.3938 62.4159ZM72.0833 68.6322C69.7653 68.6322 67.0259 68.4214 63.8651 68C64.3568 60.9759 64.6026 53.4953 64.6026 45.5581C64.6026 41.6949 64.4622 38.7448 64.1812 36.7078C63.9705 34.6709 63.5842 33.0553 63.0222 31.8612C62.5306 30.6671 61.6877 29.4379 60.4936 28.1736C61.9686 26.839 63.549 25.8908 65.2348 25.3289C66.9908 24.6967 68.5361 24.3806 69.8707 24.3806C75.0685 24.3806 77.8781 26.9093 78.2996 31.9666C79.9853 29.7891 81.7765 27.998 83.673 26.5932C85.5695 25.1884 87.7469 24.1348 90.2053 23.4324C90.697 25.0479 91.1185 27.3307 91.4697 30.2808C91.8911 33.1607 92.1018 35.8298 92.1018 38.2882C90.8375 38.0775 89.6434 37.9722 88.5196 37.9722C86.4123 37.9722 84.4456 38.2531 82.6193 38.8151C80.7931 39.3067 79.2829 39.974 78.0888 40.8169C77.9484 45.3123 77.8781 49.1053 77.8781 52.1959C77.8781 59.5711 78.5805 64.8392 79.9853 68C78.0186 68.4214 75.3846 68.6322 72.0833 68.6322ZM105.973 69.159C102.531 69.159 99.8974 68.281 98.0712 66.5249C96.3152 64.6987 95.4372 62.2754 95.4372 59.2551C95.4372 54.7597 97.4741 51.2827 101.548 48.8243C105.622 46.2957 111.838 44.6801 120.197 43.9777C119.986 41.3788 119.249 39.5175 117.984 38.3936C116.72 37.2698 114.718 36.7078 111.979 36.7078C109.52 36.7078 107.062 37.059 104.604 37.7614C102.145 38.4638 100.038 39.4121 98.2819 40.6062L97.439 34.3899C99.6867 31.2993 102.602 28.8058 106.184 26.9093C109.766 24.9425 113.419 23.9592 117.141 23.9592C122.41 23.9592 126.448 25.1884 129.258 27.6468C132.068 30.035 133.472 33.5119 133.472 38.0775C133.472 40.6062 133.297 43.4509 132.946 46.6118C132.665 49.9833 132.524 52.4768 132.524 54.0924C132.524 56.6913 132.805 58.7634 133.367 60.3087C133.929 61.7837 135.018 63.3992 136.633 65.1553C133.051 67.403 129.153 68.7375 124.938 69.159C123.042 67.9649 121.602 66.2791 120.618 64.1016C118.16 65.6469 115.631 66.8762 113.032 67.7893C110.434 68.7024 108.08 69.159 105.973 69.159ZM111.768 61.9944C114.367 61.6432 116.931 60.6599 119.459 59.0443V57.9907C119.459 57.1478 119.495 56.2347 119.565 55.2513C119.635 54.1977 119.705 53.3548 119.776 52.7227L120.092 49.2458C116.58 49.597 113.91 50.4399 112.084 51.7744C110.258 53.0388 109.345 54.7245 109.345 56.8318C109.345 57.8151 109.556 58.7985 109.977 59.7819C110.469 60.7652 111.066 61.5027 111.768 61.9944ZM155.548 68.6322C151.966 68.6322 148.945 68.4214 146.487 68C146.979 60.9759 147.224 53.4953 147.224 45.5581C147.224 41.6949 147.084 38.7448 146.803 36.7078C146.592 34.6709 146.206 33.0553 145.644 31.8612C145.152 30.6671 144.309 29.4379 143.115 28.1736C144.731 26.839 146.452 25.8908 148.278 25.3289C150.175 24.6967 151.86 24.3806 153.335 24.3806C157.55 24.3806 160.008 26.4527 160.711 30.5969C162.607 28.4897 164.749 26.8742 167.138 25.7503C169.596 24.5562 172.195 23.9592 174.934 23.9592C183.153 23.9592 187.262 28.8058 187.262 38.499L187.051 45.1367L186.84 52.1959C186.84 59.5711 187.543 64.8392 188.947 68C186.981 68.4214 184.066 68.6322 180.202 68.6322C177.744 68.6322 175.286 68.4214 172.827 68C173.319 60.8355 173.565 53.0388 173.565 44.6099C173.565 41.8003 173.073 39.7984 172.09 38.6043C171.106 37.34 169.526 36.7078 167.348 36.7078C164.609 36.7078 162.432 37.4102 160.816 38.8151C160.605 42.4676 160.5 46.9278 160.5 52.1959C160.5 59.5711 161.202 64.8392 162.607 68C160.64 68.4214 158.287 68.6322 155.548 68.6322ZM214.307 69.2643C208.407 69.2643 203.947 67.4381 200.926 63.7856C197.976 60.0628 196.501 54.6192 196.501 47.4546C196.501 39.7282 198.047 33.8982 201.137 29.9647C204.228 25.961 208.793 23.9592 214.834 23.9592C219.119 23.9592 222.982 25.083 226.424 27.3307C226.143 20.9388 225.511 15.9869 224.527 12.4748C228.671 11.07 233.975 10.3676 240.437 10.3676C239.594 18.3048 239.172 31.7208 239.172 50.6155C239.172 53.8465 239.453 56.4103 240.015 58.3068C240.577 60.1331 241.666 62.1349 243.281 64.3124C241.525 65.5767 239.524 66.6303 237.276 67.4732C235.098 68.3161 232.886 68.878 230.638 69.159C228.882 67.8244 227.653 66.1386 226.951 64.1016C225.054 65.7172 222.982 66.9815 220.734 67.8946C218.557 68.8078 216.414 69.2643 214.307 69.2643ZM217.995 61.9944C220.734 61.6432 223.438 60.414 226.108 58.3068C226.108 56.0591 226.178 52.6173 226.318 47.9814C226.459 43.3456 226.529 39.7984 226.529 37.34C224.281 36.2864 222.104 35.7596 219.997 35.7596C213.464 35.7596 210.198 40.1496 210.198 48.9297C210.198 52.4417 210.901 55.3918 212.305 57.78C213.71 60.0979 215.607 61.5027 217.995 61.9944ZM266.777 69.159C259.261 69.159 253.326 67.8946 248.971 65.366C248.971 63.5397 249.111 61.8891 249.392 60.414C249.744 58.939 250.27 57.3234 250.973 55.5674C252.378 57.2532 254.274 58.6229 256.662 59.6765C259.121 60.6599 261.86 61.1515 264.88 61.1515C269.867 61.1515 272.361 59.9926 272.361 57.6746C272.361 56.621 271.799 55.7781 270.675 55.146C269.551 54.5138 267.655 53.6709 264.986 52.6173C261.895 51.4232 259.296 50.2643 257.189 49.1404C255.152 48.0166 253.361 46.4362 251.816 44.3992C250.341 42.3622 249.603 39.8335 249.603 36.8132C249.603 32.8797 251.289 29.754 254.66 27.4361C258.102 25.1181 262.668 23.9592 268.357 23.9592C271.307 23.9592 274.293 24.205 277.313 24.6967C280.333 25.1181 282.932 25.7152 285.11 26.4878C285.11 28.2438 284.723 30.5267 283.951 33.3363C283.248 36.1459 282.476 38.1829 281.633 39.4472C278.964 37.34 276.33 35.6893 273.731 34.4953C271.132 33.2309 268.884 32.5988 266.988 32.5988C266.145 32.8095 265.407 33.1958 264.775 33.7577C264.213 34.2494 263.932 34.8113 263.932 35.4435C263.932 36.3566 264.529 37.1995 265.723 37.9722C266.917 38.6746 268.814 39.5526 271.413 40.6062C274.503 41.8705 277.067 43.0646 279.104 44.1885C281.141 45.3123 282.897 46.8225 284.372 48.719C285.847 50.6155 286.585 52.9334 286.585 55.6728C286.585 59.9575 284.829 63.2939 281.317 65.6821C277.875 68 273.028 69.159 266.777 69.159Z" fill="black"/>
</svg>
