<svg width="284" height="83" viewBox="0 0 284 83" fill="none" xmlns="http://www.w3.org/2000/svg">
<path d="M6.66955 75.3132C5.66546 67.2805 5.02649 52.858 5.02649 39.531C5.02649 28.2121 5.57418 17.0758 6.48699 12.1466C13.0592 9.59068 24.013 8.31274 35.5145 8.31274C40.2611 8.31274 45.9205 8.31274 50.8497 8.86043C51.3974 9.77325 51.7625 12.1466 51.7625 14.885C51.7625 18.7188 51.2148 23.1003 50.4846 25.6562C46.8333 25.1085 42.0867 24.7434 36.6098 24.7434C32.0458 24.7434 26.7514 24.9259 20.5443 25.8388C20.1792 28.7598 20.1792 30.5854 20.1792 32.7761C20.1792 35.1495 20.1792 37.3402 21.092 40.4438C27.6643 38.8007 33.3237 37.7053 36.975 38.253C37.5226 40.4438 37.7052 43.3648 37.7052 46.4683C37.7052 48.6591 37.7052 50.3022 37.5226 51.3975C33.5063 51.7627 28.0294 53.0406 20.7269 54.5011C20.9094 57.7872 21.6397 66.3677 22.7351 74.4004C19.0838 75.1307 14.5197 75.4958 11.2336 75.4958C9.31671 75.4958 7.67365 75.4045 6.66955 75.3132ZM90.4792 76.5912L90.1141 74.4004V74.2179C89.2013 70.2015 87.5583 63.0815 86.2803 58.3349C80.0732 60.3431 72.9532 61.9862 63.46 62.899C63.2774 65.9113 63.1861 69.5625 63.0949 72.3922C61.1779 72.8486 58.5308 73.1225 55.7924 73.1225C52.3237 73.1225 48.6724 72.7574 46.4817 71.8446C47.577 55.779 54.8795 18.445 60.539 7.94762C63.2774 6.48712 68.3892 5.02661 74.2312 5.02661C76.0568 5.02661 78.4301 5.39174 80.4383 5.75687C90.8444 15.7978 103.989 52.3103 108.37 70.2015C104.902 73.305 97.9643 76.2261 90.4792 76.5912ZM64.7379 50.8498L67.2938 50.1196C71.4927 48.8417 75.8742 47.5637 82.4465 45.1904C79.7081 36.7925 75.8742 28.0295 71.4927 20.727C67.6589 30.4028 66.1984 38.8007 64.9205 48.1114L64.7379 50.8498ZM153.821 82.2506C149.987 82.2506 146.518 81.8855 143.415 81.3378C145.24 72.2097 146.518 57.057 146.153 47.3812C144.328 47.3812 140.494 47.1986 138.486 47.1986C135.565 47.1986 130.453 47.5637 127.714 47.7463C128.262 57.6047 129.357 67.0979 130.635 74.0353C126.071 74.9481 121.507 75.3132 117.673 75.3132C116.304 75.3132 115.026 75.222 113.748 75.1307C112.379 67.6456 111.284 52.858 111.284 38.4356C111.284 28.0295 111.831 17.9886 113.292 11.0512C116.03 10.1384 119.864 9.59068 123.881 9.59068C125.706 9.59068 128.08 9.77324 129.723 9.95581L128.81 15.9804C128.08 21.0921 127.532 26.3864 127.532 34.7843C132.278 34.4192 142.137 34.0541 147.066 34.0541C147.066 25.1085 146.153 17.4409 145.423 10.8686L145.058 7.03481C147.796 6.12199 151.995 5.75687 156.194 5.75687C158.202 5.75687 160.211 5.75687 161.854 6.12199C163.131 16.3455 164.044 30.2203 164.044 43.5473C164.044 57.7872 163.131 71.8446 161.489 81.5204C158.75 82.0681 156.377 82.2506 153.821 82.2506ZM185.967 61.621C199.842 62.5338 206.049 52.4929 205.136 39.7135C204.588 29.6726 200.572 23.8306 192.539 23.8306C190.531 23.8306 188.158 24.3783 184.689 25.6562C183.776 31.4982 183.228 38.6181 183.228 45.1904C183.228 50.6673 183.776 57.2395 184.506 61.4385L185.967 61.621ZM167.711 42.0868C167.711 31.1331 168.441 20.1793 170.084 11.964C177.752 9.40812 184.506 8.31274 190.896 8.31274C210.065 8.31274 220.836 20.3619 221.201 38.8007C221.749 61.8036 209.335 76.4086 184.689 76.4086C180.307 76.4086 175.378 75.9522 169.993 74.9481C168.532 66.6415 167.711 54.4098 167.711 42.0868ZM254.06 75.1307C238.36 75.1307 225.216 65.0897 224.85 43.3648C224.668 31.3156 228.319 15.9804 234.344 6.85224C239.09 7.03481 245.115 7.94762 248.401 9.95581C245.115 16.7106 240.733 28.2121 240.733 39.8961C240.733 42.6345 241.099 45.9207 241.646 48.294C243.107 54.8662 248.401 59.978 254.608 59.2477C260.997 58.7 265.013 54.136 266.109 47.016C267.752 34.7843 262.458 19.9968 258.441 11.0512C261.91 9.59068 269.212 8.31274 273.959 8.67787C280.349 20.3619 284 33.1413 284 44.095C284 61.2559 275.237 75.1307 254.06 75.1307Z" fill="#FFA86B"/>
<path d="M1.64306 70.2866C0.638969 62.2539 0 47.8314 0 34.5043C0 23.1855 0.547688 12.0491 1.4605 7.11995C8.03276 4.56407 18.9865 3.28613 30.488 3.28613C35.2346 3.28613 40.894 3.28613 45.8232 3.83382C46.3709 4.74663 46.736 7.11995 46.736 9.85839C46.736 13.6922 46.1884 18.0737 45.4581 20.6296C41.8069 20.0819 37.0602 19.7168 31.5833 19.7168C27.0193 19.7168 21.725 19.8993 15.5178 20.8121C15.1527 23.7331 15.1527 25.5588 15.1527 27.7495C15.1527 30.1228 15.1527 32.3136 16.0655 35.4172C22.6378 33.7741 28.2972 32.6787 31.9485 33.2264C32.4962 35.4172 32.6787 38.3382 32.6787 41.4417C32.6787 43.6325 32.6787 45.2755 32.4962 46.3709C28.4798 46.736 23.0029 48.014 15.7004 49.4745C15.883 52.7606 16.6132 61.3411 17.7086 69.3738C14.0573 70.1041 9.49326 70.4692 6.20713 70.4692C4.29022 70.4692 2.64716 70.3779 1.64306 70.2866ZM85.4528 71.5646L85.0876 69.3738V69.1912C84.1748 65.1749 82.5318 58.0549 81.2538 53.3083C75.0467 55.3165 67.9268 56.9595 58.4335 57.8724C58.2509 60.8846 58.1596 64.5359 58.0684 67.3656C56.1515 67.822 53.5043 68.0959 50.7659 68.0959C47.2972 68.0959 43.6459 67.7308 41.4552 66.8179C42.5505 50.7524 49.853 13.4184 55.5125 2.92101C58.2509 1.46051 63.3627 0 69.2047 0C71.0303 0 73.4036 0.36513 75.4118 0.730256C85.8179 10.7712 98.9624 47.2837 103.344 65.1749C99.8752 68.2784 92.9378 71.1994 85.4528 71.5646ZM59.7114 45.8232L62.2673 45.093C66.4662 43.815 70.8478 42.5371 77.42 40.1638C74.6816 31.7659 70.8478 23.0029 66.4662 15.7004C62.6324 25.3762 61.1719 33.7741 59.894 43.0848L59.7114 45.8232ZM148.794 77.224C144.961 77.224 141.492 76.8589 138.388 76.3112C140.214 67.1831 141.492 52.0304 141.127 42.3545C139.301 42.3545 135.467 42.172 133.459 42.172C130.538 42.172 125.426 42.5371 122.688 42.7197C123.236 52.578 124.331 62.0713 125.609 69.0087C121.045 69.9215 116.481 70.2866 112.647 70.2866C111.278 70.2866 110 70.1953 108.722 70.1041C107.353 62.619 106.257 47.8314 106.257 33.409C106.257 23.0029 106.805 12.962 108.265 6.02457C111.004 5.11176 114.838 4.56407 118.854 4.56407C120.68 4.56407 123.053 4.74663 124.696 4.9292L123.783 10.9538C123.053 16.0655 122.505 21.3598 122.505 29.7577C127.252 29.3926 137.11 29.0275 142.04 29.0275C142.04 20.0819 141.127 12.4143 140.397 5.84201L140.031 2.00819C142.77 1.09538 146.969 0.730256 151.168 0.730256C153.176 0.730256 155.184 0.730256 156.827 1.09538C158.105 11.3189 159.018 25.1936 159.018 38.5207C159.018 52.7606 158.105 66.8179 156.462 76.4938C153.724 77.0414 151.35 77.224 148.794 77.224ZM180.94 56.5944C194.815 57.5072 201.022 47.4663 200.109 34.6869C199.562 24.646 195.545 18.804 187.513 18.804C185.504 18.804 183.131 19.3516 179.662 20.6296C178.75 26.4716 178.202 33.5915 178.202 40.1638C178.202 45.6407 178.75 52.2129 179.48 56.4119L180.94 56.5944ZM162.684 37.0602C162.684 26.1065 163.414 15.1527 165.057 6.93739C172.725 4.38151 179.48 3.28613 185.87 3.28613C205.039 3.28613 215.81 15.3353 216.175 33.7741C216.723 56.777 204.308 71.382 179.662 71.382C175.281 71.382 170.352 70.9256 164.966 69.9215C163.506 61.6149 162.684 49.3832 162.684 37.0602ZM249.034 70.1041C233.334 70.1041 220.189 60.0631 219.824 38.3382C219.641 26.289 223.293 10.9538 229.317 1.82563C234.064 2.00819 240.088 2.92101 243.375 4.9292C240.088 11.684 235.707 23.1855 235.707 34.8695C235.707 37.6079 236.072 40.894 236.62 43.2674C238.08 49.8396 243.375 54.9514 249.582 54.2211C255.971 53.6734 259.987 49.1094 261.082 41.9894C262.725 29.7577 257.431 14.9701 253.415 6.02457C256.883 4.56407 264.186 3.28613 268.933 3.65126C275.322 15.3353 278.973 28.1147 278.973 39.0684C278.973 56.2293 270.211 70.1041 249.034 70.1041Z" fill="#1E1E1E"/>
</svg>
