<svg width="13" height="11" viewBox="0 0 13 11" fill="none" xmlns="http://www.w3.org/2000/svg">
<path d="M8.42857 5.49944C8.42857 5.9541 8.24796 6.39013 7.92647 6.71163C7.60498 7.03312 7.16894 7.21373 6.71429 7.21373C6.25963 7.21373 5.82359 7.03312 5.5021 6.71163C5.18061 6.39013 5 5.9541 5 5.49944C5 5.04479 5.18061 4.60875 5.5021 4.28726C5.82359 3.96577 6.25963 3.78516 6.71429 3.78516C7.16894 3.78516 7.60498 3.96577 7.92647 4.28726C8.24796 4.60875 8.42857 5.04479 8.42857 5.49944Z" stroke="black" stroke-width="1.14286" stroke-linecap="round" stroke-linejoin="round"/>
<path d="M1 5.5C1.91429 3.15886 4.04914 1.5 6.71429 1.5C9.37943 1.5 11.5143 3.15886 12.4286 5.5C11.5143 7.84114 9.37943 9.5 6.71429 9.5C4.04914 9.5 1.91429 7.84114 1 5.5Z" stroke="black" stroke-width="1.14286" stroke-linecap="round" stroke-linejoin="round"/>
</svg>
