<svg width="22" height="22" viewBox="0 0 22 22" fill="none" xmlns="http://www.w3.org/2000/svg">
<path d="M16.85 13.0179V10C16.85 9.695 16.9712 9.40249 17.1868 9.18683C17.4021 8.97151 17.694 8.8504 17.9985 8.85C18.1509 8.84715 18.3024 8.87464 18.4442 8.93088C18.5863 8.9873 18.7158 9.07152 18.8251 9.17862C18.9343 9.28571 19.0211 9.41352 19.0803 9.55457C19.1395 9.6956 19.17 9.84703 19.17 10C19.17 10 19.17 10 19.17 10L19.17 18.2294C19.17 18.2295 19.17 18.2297 19.17 18.2298V18.23H19.02C19.0226 18.8297 18.8283 19.4137 18.4671 19.8924C18.1058 20.3711 17.5974 20.718 17.02 20.88C16.7603 20.9574 16.491 20.9978 16.22 21L16.85 13.0179ZM16.85 13.0179L15.6261 11.7939L15.6256 11.7935C15.075 11.2472 14.3307 10.9406 13.555 10.9406C12.7793 10.9406 12.035 11.2472 11.4844 11.7935L11.4832 11.7947L10.8895 12.3969M16.85 13.0179L10.8895 12.3969M10.8895 12.3969L8.51628 10.0141L8.51565 10.0135C7.96497 9.46719 7.2207 9.16063 6.445 9.16063C5.6693 9.16063 4.92503 9.46719 4.37435 10.0135L4.37358 10.0143L3.15 11.2461V6C3.15 5.77457 3.23955 5.55837 3.39896 5.39896C3.55837 5.23955 3.77457 5.15 4 5.15H12C12.305 5.15 12.5975 5.02884 12.8132 4.81317C13.0288 4.59751 13.15 4.305 13.15 4C13.15 3.695 13.0288 3.40249 12.8132 3.18683C12.5975 2.97116 12.305 2.85 12 2.85H4C3.16457 2.85 2.36335 3.18187 1.77261 3.77261C1.18187 4.36335 0.85 5.16457 0.85 6L0.849999 18.22L0.850001 18.2205C0.852778 18.9966 1.16231 19.7401 1.71109 20.2889C2.25987 20.8377 3.00338 21.1472 3.77946 21.15H3.78L16.22 21.15L16.2212 21.15C16.5059 21.1477 16.7888 21.1053 17.0617 21.0241L10.8895 12.3969ZM16.85 17.9974C16.8463 18.0994 16.8243 18.1994 16.7856 18.2928L12.5126 14.001L13.1153 13.4068L13.1153 13.4068L13.1171 13.405C13.1749 13.3461 13.2438 13.2993 13.3198 13.2673C13.3959 13.2353 13.4775 13.2189 13.56 13.2189C13.6425 13.2189 13.7241 13.2353 13.8002 13.2673C13.8762 13.2993 13.9451 13.3461 14.0029 13.405L14.0036 13.4057L16.85 16.2718V17.9974ZM4 18.85C3.77457 18.85 3.55837 18.7604 3.39896 18.601C3.23955 18.4416 3.15 18.2254 3.15 18V14.4921L5.99577 11.6464C5.9958 11.6463 5.99582 11.6463 5.99585 11.6463C6.11389 11.5289 6.27356 11.4631 6.44 11.4631C6.60641 11.4631 6.76606 11.5289 6.88409 11.6462C6.88414 11.6463 6.88418 11.6463 6.88423 11.6464L14.0975 18.85H4ZM20 2.85H19.15V2C19.15 1.695 19.0288 1.40249 18.8132 1.18683C18.5975 0.97116 18.305 0.85 18 0.85C17.695 0.85 17.4025 0.97116 17.1868 1.18683C16.9712 1.40249 16.85 1.695 16.85 2V2.85H16C15.695 2.85 15.4025 2.97116 15.1868 3.18683C14.9712 3.40249 14.85 3.695 14.85 4C14.85 4.305 14.9712 4.59751 15.1868 4.81317C15.4025 5.02884 15.695 5.15 16 5.15H16.85V6C16.85 6.305 16.9712 6.59751 17.1868 6.81317C17.4025 7.02884 17.695 7.15 18 7.15C18.305 7.15 18.5975 7.02884 18.8132 6.81317C19.0288 6.59751 19.15 6.305 19.15 6V5.15H20C20.305 5.15 20.5975 5.02884 20.8132 4.81317C21.0288 4.59751 21.15 4.305 21.15 4C21.15 3.695 21.0288 3.40249 20.8132 3.18683C20.5975 2.97116 20.305 2.85 20 2.85Z" fill="#1E1E1E" stroke="black" stroke-width="0.3"/>
</svg>
