<svg width="26" height="26" viewBox="0 0 26 26" fill="none" xmlns="http://www.w3.org/2000/svg">
<path d="M1.91211 3.34595L6.45338 0.716797L21.9893 1.43384L24.3794 4.78004V18.8819L20.5552 20.555L16.492 21.272L12.9068 24.8572L9.79958 21.75L4.06324 20.316L0.956055 17.4478L1.91211 3.34595Z" fill="#FC6464"/>
<path d="M8.36524 8.84424L11.2334 7.41016H15.7747L19.1209 10.9954L17.6868 13.6245L15.2966 15.0586L10.7554 14.8196L7.40918 11.7124L8.36524 8.84424Z" fill="white"/>
<path fill-rule="evenodd" clip-rule="evenodd" d="M11.0577 0H14.7556C16.6801 0 18.1893 3.57811e-08 19.3947 0.114058C20.623 0.231719 21.6291 0.474243 22.5163 1.01692C23.4456 1.58629 24.2269 2.36759 24.7963 3.29689C25.339 4.18294 25.5815 5.19026 25.6992 6.41849C25.8132 7.62391 25.8132 9.13308 25.8132 11.0589V12.3399C25.8132 13.7098 25.8132 14.7844 25.7532 15.6524C25.6932 16.5349 25.5695 17.2696 25.2874 17.9492C24.9404 18.7868 24.4319 19.5479 23.7908 20.189C23.1497 20.83 22.3887 21.3386 21.551 21.6855C20.5845 22.0865 19.4848 22.1754 17.9768 22.2018C17.6046 22.2002 17.2324 22.2146 16.8614 22.245C16.6237 22.2714 16.5313 22.3098 16.4772 22.341C16.4208 22.3747 16.3428 22.4347 16.2083 22.6196C16.063 22.8189 15.8985 23.095 15.6368 23.5369L14.9861 24.6366C14.058 26.2058 11.7564 26.2058 10.8271 24.6366L10.1764 23.5369C9.99898 23.2232 9.80831 22.9171 9.60492 22.6196C9.47045 22.4347 9.39241 22.3747 9.33598 22.341C9.28195 22.3098 9.18951 22.2714 8.95179 22.245C8.69726 22.2174 8.36348 22.209 7.83521 22.2006C6.32844 22.1754 5.22868 22.0865 4.26218 21.6855C3.42457 21.3386 2.66349 20.83 2.02241 20.189C1.38133 19.5479 0.872805 18.7868 0.525869 17.9492C0.243725 17.2696 0.120062 16.5349 0.0588302 15.6524C3.13085e-08 14.7844 0 13.7098 0 12.3387V11.0589C0 9.13308 3.57811e-08 7.62511 0.114058 6.41849C0.231719 5.19026 0.474243 4.18294 1.01692 3.29689C1.58629 2.36759 2.36759 1.58629 3.29689 1.01692C4.18294 0.474243 5.19026 0.231719 6.41849 0.114058C7.62391 3.57811e-08 9.13308 0 11.0589 0M6.59018 1.90778C5.49281 2.01223 4.79526 2.21153 4.23817 2.55251C3.55107 2.97342 2.97342 3.55107 2.55251 4.23817C2.21153 4.79526 2.01223 5.49281 1.90778 6.59138C1.80212 7.70074 1.80092 9.12467 1.80092 11.1069V12.3075C1.80092 13.7182 1.80092 14.7315 1.85615 15.5312C1.91018 16.3224 2.01343 16.8386 2.18992 17.2612C2.7078 18.5115 3.70111 19.5048 4.95134 20.0227C5.56965 20.2796 6.35966 20.3756 7.86763 20.4021H7.90485C8.38269 20.4105 8.80171 20.4177 9.14989 20.4561C9.52328 20.4981 9.88947 20.5809 10.2412 20.785C10.5894 20.9892 10.8416 21.2593 11.0601 21.5594C11.263 21.838 11.4707 22.1898 11.706 22.5872L12.3771 23.7206C12.4333 23.8104 12.5113 23.8844 12.6039 23.9358C12.6965 23.9871 12.8007 24.0141 12.9066 24.0141C13.0125 24.0141 13.1167 23.9871 13.2093 23.9358C13.3019 23.8844 13.38 23.8104 13.4361 23.7206L14.1072 22.5872C14.3425 22.1898 14.5515 21.838 14.7532 21.5594C14.9717 21.2593 15.2238 20.988 15.572 20.785C15.9238 20.5809 16.2899 20.4969 16.6633 20.4561C17.0115 20.4177 17.4305 20.4105 17.9084 20.4021H17.9468C19.4536 20.3756 20.2436 20.2796 20.8619 20.0227C22.1121 19.5048 23.1054 18.5115 23.6233 17.2612C23.7998 16.8386 23.903 16.3224 23.9571 15.5312C24.0123 14.7315 24.0123 13.7182 24.0123 12.3075V11.1069C24.0123 9.12467 24.0123 7.70074 23.9054 6.59018C23.801 5.49281 23.6017 4.79526 23.2607 4.23817C22.84 3.55165 22.2628 2.97443 21.5763 2.55371C21.0192 2.21273 20.3216 2.01343 19.223 1.90898C18.1137 1.80332 16.6898 1.80212 14.7075 1.80212H11.1057C9.12347 1.80212 7.69954 1.80212 6.58898 1.90898" fill="#1E1E1E"/>
<path d="M7.2041 11.1045C7.2041 11.1045 9.00502 6.90234 13.2072 6.90234C17.4093 6.90234 19.2103 11.1045 19.2103 11.1045C19.2103 11.1045 17.4093 15.3066 13.2072 15.3066C9.00502 15.3066 7.2041 11.1045 7.2041 11.1045Z" stroke="#1E1E1E" stroke-width="1.19507" stroke-linecap="round" stroke-linejoin="round"/>
<path d="M13.2072 12.9046C14.2018 12.9046 15.0081 12.0983 15.0081 11.1037C15.0081 10.109 14.2018 9.30273 13.2072 9.30273C12.2126 9.30273 11.4062 10.109 11.4062 11.1037C11.4062 12.0983 12.2126 12.9046 13.2072 12.9046Z" stroke="#1E1E1E" stroke-width="1.19507" stroke-linecap="round" stroke-linejoin="round"/>
</svg>
