<svg width="37" height="19" viewBox="0 0 37 19" fill="none" xmlns="http://www.w3.org/2000/svg">
<ellipse cx="8" cy="6.50391" rx="3" ry="3.5" fill="#FDD88F"/>
<ellipse cx="19" cy="5.50391" rx="3" ry="3.5" fill="#ADBFFF"/>
<ellipse cx="29" cy="5.50391" rx="3" ry="3.5" fill="#67FF6D"/>
<path d="M32.4811 5.9101C32.4809 8.03902 30.8865 9.79558 28.9238 9.79558C26.9427 9.79558 25.3484 8.02929 25.3484 5.89172C25.3484 3.79582 26.9281 2.08864 28.9238 2.08864C30.8838 2.08864 32.4906 3.82374 32.4811 5.9101ZM32.4811 5.9101C32.4811 5.91022 32.4811 5.91034 32.4811 5.91045L32.3311 5.90976L32.4811 5.9101ZM14.3338 5.18188L14.3338 5.18244C14.3428 7.59446 16.1656 9.59588 18.4193 9.59588C20.6821 9.59588 22.5048 7.58467 22.5048 5.16384C22.5048 2.76499 20.687 0.85 18.4193 0.85C16.1697 0.85 14.3338 2.79298 14.3338 5.18188ZM10.0101 18.15H10.5833L10.0836 17.8692C9.69186 17.6491 9.39242 17.1569 9.44869 16.6691L9.46797 16.5019H9.29968H2.63057C2.55494 16.5019 2.53019 16.486 2.52445 16.481L2.52436 16.4809C2.52246 16.4793 2.50746 16.4664 2.50746 16.4061C2.50746 15.3346 3.12 14.2807 4.11243 13.4893C5.10331 12.6992 6.45982 12.1826 7.91484 12.1826C9.03816 12.1826 10.0412 12.4503 10.8997 12.9546L11.0124 13.0208L11.0934 12.9181C11.3773 12.5585 11.7133 12.2433 12.0904 11.9832L12.2735 11.8569L12.0878 11.7345C10.886 10.9424 9.44457 10.5345 7.91484 10.5345C4.03736 10.5345 0.85 13.3504 0.85 16.4883C0.85 17.0259 1.01627 17.4523 1.37008 17.7397C1.71787 18.0221 2.22266 18.15 2.85827 18.15H10.0101ZM24.7512 11.7348L24.5641 11.8573L24.7484 11.9839C25.1458 12.2571 25.4717 12.5662 25.7553 12.9192L25.8369 13.0207L25.9488 12.9542C26.7975 12.4504 27.8089 12.1826 28.9238 12.1826C30.3788 12.1826 31.7353 12.6992 32.7262 13.4893C33.7186 14.2807 34.3312 15.3346 34.3312 16.4061C34.3312 16.4382 34.3273 16.458 34.3234 16.4694C34.32 16.4796 34.3168 16.4825 34.3158 16.4834C34.3131 16.4859 34.2927 16.5019 34.2168 16.5019H27.5476H27.3821L27.3984 16.6666C27.4468 17.158 27.1536 17.6502 26.7637 17.8692L26.264 18.15H26.8372H33.9891C34.6205 18.15 35.1232 18.0221 35.4698 17.7395C35.8224 17.4522 35.9886 17.0258 35.9886 16.4883C35.9886 13.3503 32.8006 10.5345 28.9238 10.5345C27.3938 10.5345 25.9613 10.9425 24.7512 11.7348ZM7.92417 9.79558C9.89617 9.79558 11.4902 8.02902 11.4902 5.89172L4.5075 5.90976L4.3575 5.91044C4.3575 5.91044 4.3575 5.91045 4.3575 5.91045C4.36716 8.03861 5.95168 9.79558 7.92417 9.79558ZM18.4193 7.91975C17.1915 7.91975 16.1001 6.73243 16.1001 5.18188C16.1001 3.66296 17.1697 2.52613 18.4199 2.52613C19.6791 2.52613 20.7385 3.64584 20.7385 5.16321C20.7385 6.71645 19.6634 7.91975 18.4193 7.91975ZM7.92417 8.13874C6.9138 8.13874 6.01496 7.15939 6.01496 5.91038C6.01496 4.69329 6.901 3.7461 7.92417 3.7461C8.97516 3.7461 9.8421 4.67579 9.8421 5.89234C9.8421 7.15974 8.94296 8.13874 7.92417 8.13874ZM28.9238 8.13874C27.8953 8.13874 26.9965 7.15928 26.9965 5.89234C26.9965 4.67631 27.863 3.74672 28.9238 3.74672C29.9456 3.74672 30.8237 4.69242 30.8237 5.911C30.8237 7.16026 29.9328 8.13874 28.9238 8.13874ZM12.6977 18.15H24.1409C24.9063 18.15 25.4998 18.0358 25.9055 17.7729C26.3241 17.5017 26.5231 17.0856 26.5231 16.5424C26.5231 15.2913 25.7379 13.7929 24.3448 12.6129C22.9469 11.4287 20.9242 10.5526 18.4193 10.5526C15.9098 10.5526 13.8848 11.4286 12.4857 12.6128C11.0914 13.7929 10.3062 15.2913 10.3062 16.5424C10.3062 17.0857 10.5053 17.5018 10.9252 17.773C11.332 18.0358 11.9278 18.15 12.6977 18.15ZM12.2603 16.4751C12.1476 16.4751 12.1056 16.4581 12.0919 16.4481C12.0919 16.4481 12.0918 16.448 12.0917 16.448C12.0896 16.4467 12.0738 16.4371 12.0738 16.3701C12.0738 15.6864 12.6144 14.6521 13.6976 13.7806C14.7725 12.9158 16.3633 12.2287 18.4193 12.2287C20.4709 12.2287 22.0595 12.9158 23.1333 13.7805C24.2155 14.652 24.7561 15.6861 24.7561 16.3694C24.7561 16.4065 24.7516 16.4271 24.7476 16.4377C24.7445 16.446 24.7421 16.4479 24.7401 16.4494C24.7297 16.4573 24.6918 16.4745 24.5783 16.4745L12.2603 16.4751Z" fill="#1E1E1E" stroke="#1E1E1E" stroke-width="0.3"/>
</svg>
