<svg width="23" height="18" viewBox="0 0 23 18" fill="none" xmlns="http://www.w3.org/2000/svg">
<path d="M19.9993 17H2.66602C1.55935 17 0.666016 16.1067 0.666016 15V3C0.666016 1.89333 1.55935 1 2.66602 1H19.9993C21.106 1 21.9993 1.89333 21.9993 3V15C21.9993 16.1067 21.106 17 19.9993 17ZM2.66602 2.33333C2.29268 2.33333 1.99935 2.62667 1.99935 3V15C1.99935 15.3733 2.29268 15.6667 2.66602 15.6667H19.9993C20.3727 15.6667 20.666 15.3733 20.666 15V3C20.666 2.62667 20.3727 2.33333 19.9993 2.33333H2.66602Z" fill="#1E1E1E" stroke="#1E1E1E" stroke-width="0.888889"/>
<path d="M11.3332 11.6141C10.3999 11.6141 9.54656 11.2408 8.90656 10.5608L1.90656 3.12081C1.65323 2.85414 1.66656 2.42748 1.93323 2.17414C2.1999 1.92081 2.62656 1.93414 2.8799 2.20081L9.8799 9.64081C10.6399 10.4541 12.0266 10.4541 12.7866 9.64081L19.7866 2.21414C20.0399 1.94748 20.4666 1.93414 20.7332 2.18748C20.9999 2.44081 21.0132 2.86748 20.7599 3.13414L13.7599 10.5741C13.1199 11.2541 12.2666 11.6275 11.3332 11.6275V11.6141Z" fill="#1E1E1E" stroke="#1E1E1E" stroke-width="0.888889"/>
</svg>
