<svg width="23" height="24" viewBox="0 0 23 24" fill="none" xmlns="http://www.w3.org/2000/svg">
<rect x="1" y="15" width="4" height="7" fill="#F4FD8F"/>
<rect x="9" y="13" width="4" height="9" fill="#ADBFFF"/>
<rect x="17" y="10" width="5" height="12" fill="#67FF6D"/>
<path d="M1.8036 10.9056L20.6636 2.3284M20.6636 2.3284L17.1376 1M20.6636 2.3284L19.3516 5.8544M21.5 22.32H17.4V10.84C17.4 10.6225 17.4864 10.414 17.6402 10.2602C17.794 10.1064 18.0025 10.02 18.22 10.02H20.68C20.8975 10.02 21.106 10.1064 21.2598 10.2602C21.4136 10.414 21.5 10.6225 21.5 10.84V22.32ZM13.3 22.32H9.2V13.3C9.2 13.0825 9.28639 12.874 9.44017 12.7202C9.59395 12.5664 9.80252 12.48 10.02 12.48H12.48C12.6975 12.48 12.906 12.5664 13.0598 12.7202C13.2136 12.874 13.3 13.0825 13.3 13.3V22.32ZM5.1 22.32H1V15.76C1 15.5425 1.08639 15.334 1.24017 15.1802C1.39395 15.0264 1.60252 14.94 1.82 14.94H4.28C4.49748 14.94 4.70605 15.0264 4.85983 15.1802C5.01361 15.334 5.1 15.5425 5.1 15.76V22.32Z" stroke="#1E1E1E" stroke-width="1.64" stroke-linecap="round" stroke-linejoin="round"/>
</svg>
