<svg width="148" height="41" viewBox="0 0 148 41" fill="none" xmlns="http://www.w3.org/2000/svg">
<path d="M0.866454 37.065C0.336954 32.829 0 25.2234 0 18.1955C0 12.2266 0.288818 6.354 0.770181 3.75464C4.236 2.40682 10.0124 1.73291 16.0775 1.73291C18.5806 1.73291 21.5651 1.73291 24.1644 2.02173C24.4532 2.50309 24.6458 3.75464 24.6458 5.19872C24.6458 7.22045 24.357 9.53099 23.9719 10.8788C22.0464 10.59 19.5433 10.3974 16.6552 10.3974C14.2483 10.3974 11.4564 10.4937 8.18317 10.9751C7.99063 12.5154 7.99063 13.4782 7.99063 14.6334C7.99063 15.885 7.99063 17.0403 8.47199 18.6769C11.9378 17.8104 14.9223 17.2328 16.8477 17.5216C17.1365 18.6769 17.2328 20.2173 17.2328 21.8539C17.2328 23.0092 17.2328 23.8756 17.1365 24.4532C15.0185 24.6458 12.1304 25.3197 8.27945 26.0899C8.37572 27.8228 8.76081 32.3476 9.33844 36.5836C7.41299 36.9687 5.00618 37.1612 3.27327 37.1612C2.26241 37.1612 1.39595 37.1131 0.866454 37.065ZM45.0627 37.7389L44.8701 36.5836V36.4873C44.3888 34.3693 43.5223 30.6147 42.8484 28.1116C39.5751 29.1706 35.8205 30.0371 30.8143 30.5184C30.7181 32.1069 30.6699 34.0324 30.6218 35.5246C29.6109 35.7653 28.215 35.9097 26.7709 35.9097C24.9417 35.9097 23.0162 35.7171 21.861 35.2358C22.4386 26.7638 26.2895 7.07604 29.274 1.54036C30.7181 0.770184 33.4137 0 36.4944 0C37.4571 0 38.7087 0.192548 39.7677 0.385093C45.2552 5.68009 52.1868 24.9346 54.4974 34.3693C52.6682 36.006 49.0098 37.5463 45.0627 37.7389ZM31.4882 24.1644L32.8361 23.7793C35.0503 23.1054 37.3609 22.4315 40.8267 21.18C39.3826 16.7514 37.3609 12.1304 35.0503 8.27945C33.0286 13.3819 32.2584 17.8104 31.5845 22.7203L31.4882 24.1644ZM78.4653 40.7233C76.4435 40.7233 74.6144 40.5308 72.9777 40.242C73.9405 35.4283 74.6144 27.4377 74.4218 22.3353C73.4591 22.3353 71.4374 22.239 70.3784 22.239C68.838 22.239 66.1424 22.4315 64.6983 22.5278C64.9871 27.7265 65.5647 32.7327 66.2386 36.3911C63.8318 36.8724 61.4249 37.065 59.4033 37.065C58.6812 37.065 58.0073 37.0168 57.3334 36.9687C56.6114 33.0215 56.0337 25.2234 56.0337 17.6179C56.0337 12.1304 56.3226 6.83536 57.0927 3.177C58.5368 2.69564 60.5586 2.40682 62.6766 2.40682C63.6393 2.40682 64.8908 2.50309 65.7573 2.59936L65.2759 5.77636C64.8908 8.47199 64.602 11.2639 64.602 15.6924C67.105 15.4999 72.3038 15.3074 74.9032 15.3074C74.9032 10.59 74.4218 6.54654 74.0367 3.08073L73.8442 1.059C75.2883 0.577638 77.5025 0.385093 79.7168 0.385093C80.7758 0.385093 81.8348 0.385093 82.7013 0.577638C83.375 5.96891 83.8565 13.2856 83.8565 20.3135C83.8565 27.8228 83.375 35.2358 82.5087 40.3382C81.0646 40.6271 79.813 40.7233 78.4653 40.7233ZM95.4171 29.8445C102.734 30.3259 106.007 25.0309 105.526 18.2918C105.237 12.9968 103.119 9.91608 98.883 9.91608C97.824 9.91608 96.5724 10.2049 94.7432 10.8788C94.2619 13.9595 93.973 17.7142 93.973 21.18C93.973 24.0682 94.2619 27.534 94.647 29.7482L95.4171 29.8445ZM85.7899 19.5433C85.7899 13.767 86.175 7.99063 87.0414 3.65836C91.0849 2.31055 94.647 1.73291 98.0165 1.73291C108.125 1.73291 113.805 8.0869 113.998 17.8104C114.287 29.9408 107.74 37.6426 94.7432 37.6426C92.4327 37.6426 89.8333 37.4019 86.9933 36.8724C86.2231 32.492 85.7899 26.0417 85.7899 19.5433ZM131.326 36.9687C123.046 36.9687 116.115 31.6737 115.922 20.2173C115.826 13.8633 117.751 5.77636 120.928 0.962729C123.431 1.059 126.608 1.54036 128.341 2.59936C126.608 6.16145 124.298 12.2266 124.298 18.3881C124.298 19.8322 124.49 21.5651 124.779 22.8166C125.549 26.2824 128.341 28.9781 131.614 28.593C134.984 28.3042 137.102 25.8973 137.679 22.1427C138.546 15.6924 135.754 7.89436 133.636 3.177C135.465 2.40682 139.316 1.73291 141.819 1.92546C145.188 8.0869 147.114 14.826 147.114 20.6023C147.114 29.652 142.493 36.9687 131.326 36.9687Z" fill="#1E1E1E"/>
</svg>
