<svg width="21" height="22" viewBox="0 0 21 22" fill="none" xmlns="http://www.w3.org/2000/svg">
<path d="M20.7957 8.7658H19.9499V8.72222H10.4999V12.9222H16.434C15.5683 15.3671 13.242 17.1222 10.4999 17.1222C7.02079 17.1222 4.19998 14.3014 4.19998 10.8222C4.19998 7.34306 7.02079 4.52224 10.4999 4.52224C12.1059 4.52224 13.567 5.12809 14.6795 6.11771L17.6494 3.1478C15.7741 1.40009 13.2656 0.322266 10.4999 0.322266C4.70135 0.322266 0 5.02362 0 10.8222C0 16.6208 4.70135 21.3222 10.4999 21.3222C16.2985 21.3222 20.9999 16.6208 20.9999 10.8222C20.9999 10.1182 20.9274 9.43097 20.7957 8.7658Z" fill="#FFC107"/>
<path d="M1.21069 5.93501L4.66045 8.46498C5.5939 6.15394 7.85454 4.52224 10.5 4.52224C12.106 4.52224 13.567 5.12809 14.6795 6.11771L17.6494 3.1478C15.7741 1.40009 13.2657 0.322266 10.5 0.322266C6.46697 0.322266 2.96943 2.59918 1.21069 5.93501Z" fill="#FF3D00"/>
<path d="M10.4998 21.3223C13.2119 21.3223 15.6763 20.2844 17.5395 18.5965L14.2898 15.8466C13.2001 16.6752 11.8687 17.1234 10.4998 17.1223C7.76876 17.1223 5.44985 15.3809 4.57625 12.9507L1.15222 15.5888C2.88996 18.9892 6.419 21.3223 10.4998 21.3223Z" fill="#4CAF50"/>
<path d="M20.7957 8.7658H19.95V8.72223H10.5V12.9222H16.434C16.0199 14.0858 15.274 15.1026 14.2884 15.847L14.29 15.8459L17.5397 18.5959C17.3097 18.8048 20.9999 16.0722 20.9999 10.8222C20.9999 10.1182 20.9275 9.43098 20.7957 8.7658Z" fill="#1976D2"/>
</svg>
