<svg width="20" height="21" viewBox="0 0 20 21" fill="none" xmlns="http://www.w3.org/2000/svg">
<g opacity="0.6">
<path d="M10.0035 0.980469C5.89454 0.980469 4.69281 0.984709 4.45922 1.00409C3.61599 1.0742 3.09128 1.20701 2.51963 1.49169C2.07909 1.71051 1.73165 1.96415 1.38875 2.31971C0.76428 2.96813 0.385808 3.76586 0.248798 4.71412C0.182191 5.17447 0.16281 5.26835 0.158874 7.61976C0.157364 8.40356 0.158874 9.4351 0.158874 10.8187C0.158874 14.9255 0.163413 16.1263 0.183098 16.3595C0.251223 17.1803 0.3799 17.6967 0.652402 18.2615C1.17318 19.3427 2.1678 20.1544 3.33955 20.4572C3.74527 20.5617 4.19338 20.6193 4.76866 20.6465C5.0124 20.6571 7.49668 20.6647 9.98248 20.6647C12.4683 20.6647 14.9541 20.6617 15.1918 20.6495C15.8579 20.6182 16.2447 20.5663 16.6723 20.4557C17.8517 20.1513 18.8281 19.3518 19.3595 18.2554C19.6267 17.7042 19.7622 17.1682 19.8235 16.3903C19.8368 16.2207 19.8424 13.5166 19.8424 10.8161C19.8424 8.11523 19.8364 5.41615 19.823 5.24654C19.761 4.45608 19.6255 3.92457 19.3496 3.36276C19.1233 2.90287 18.872 2.55942 18.5072 2.20827C17.8561 1.58619 17.0597 1.20761 16.1108 1.07072C15.6511 1.00424 15.5595 0.984553 13.2069 0.980469H10.0035Z" fill="url(#paint0_radial_1283_18264)"/>
<path d="M10.0035 0.980469C5.89454 0.980469 4.69281 0.984709 4.45922 1.00409C3.61599 1.0742 3.09128 1.20701 2.51963 1.49169C2.07909 1.71051 1.73165 1.96415 1.38875 2.31971C0.76428 2.96813 0.385808 3.76586 0.248798 4.71412C0.182191 5.17447 0.16281 5.26835 0.158874 7.61976C0.157364 8.40356 0.158874 9.4351 0.158874 10.8187C0.158874 14.9255 0.163413 16.1263 0.183098 16.3595C0.251223 17.1803 0.3799 17.6967 0.652402 18.2615C1.17318 19.3427 2.1678 20.1544 3.33955 20.4572C3.74527 20.5617 4.19338 20.6193 4.76866 20.6465C5.0124 20.6571 7.49668 20.6647 9.98248 20.6647C12.4683 20.6647 14.9541 20.6617 15.1918 20.6495C15.8579 20.6182 16.2447 20.5663 16.6723 20.4557C17.8517 20.1513 18.8281 19.3518 19.3595 18.2554C19.6267 17.7042 19.7622 17.1682 19.8235 16.3903C19.8368 16.2207 19.8424 13.5166 19.8424 10.8161C19.8424 8.11523 19.8364 5.41615 19.823 5.24654C19.761 4.45608 19.6255 3.92457 19.3496 3.36276C19.1233 2.90287 18.872 2.55942 18.5072 2.20827C17.8561 1.58619 17.0597 1.20761 16.1108 1.07072C15.6511 1.00424 15.5595 0.984553 13.2069 0.980469H10.0035Z" fill="url(#paint1_radial_1283_18264)"/>
<path d="M10.0035 0.980469C5.89454 0.980469 4.69281 0.984709 4.45922 1.00409C3.61599 1.0742 3.09128 1.20701 2.51963 1.49169C2.07909 1.71051 1.73165 1.96415 1.38875 2.31971C0.76428 2.96813 0.385808 3.76586 0.248798 4.71412C0.182191 5.17447 0.16281 5.26835 0.158874 7.61976C0.157364 8.40356 0.158874 9.4351 0.158874 10.8187C0.158874 14.9255 0.163413 16.1263 0.183098 16.3595C0.251223 17.1803 0.3799 17.6967 0.652402 18.2615C1.17318 19.3427 2.1678 20.1544 3.33955 20.4572C3.74527 20.5617 4.19338 20.6193 4.76866 20.6465C5.0124 20.6571 7.49668 20.6647 9.98248 20.6647C12.4683 20.6647 14.9541 20.6617 15.1918 20.6495C15.8579 20.6182 16.2447 20.5663 16.6723 20.4557C17.8517 20.1513 18.8281 19.3518 19.3595 18.2554C19.6267 17.7042 19.7622 17.1682 19.8235 16.3903C19.8368 16.2207 19.8424 13.5166 19.8424 10.8161C19.8424 8.11523 19.8364 5.41615 19.823 5.24654C19.761 4.45608 19.6255 3.92457 19.3496 3.36276C19.1233 2.90287 18.872 2.55942 18.5072 2.20827C17.8561 1.58619 17.0597 1.20761 16.1108 1.07072C15.6511 1.00424 15.5595 0.984553 13.2069 0.980469H10.0035Z" fill="url(#paint2_radial_1283_18264)"/>
<path d="M10.0035 0.980469C5.89454 0.980469 4.69281 0.984709 4.45922 1.00409C3.61599 1.0742 3.09128 1.20701 2.51963 1.49169C2.07909 1.71051 1.73165 1.96415 1.38875 2.31971C0.76428 2.96813 0.385808 3.76586 0.248798 4.71412C0.182191 5.17447 0.16281 5.26835 0.158874 7.61976C0.157364 8.40356 0.158874 9.4351 0.158874 10.8187C0.158874 14.9255 0.163413 16.1263 0.183098 16.3595C0.251223 17.1803 0.3799 17.6967 0.652402 18.2615C1.17318 19.3427 2.1678 20.1544 3.33955 20.4572C3.74527 20.5617 4.19338 20.6193 4.76866 20.6465C5.0124 20.6571 7.49668 20.6647 9.98248 20.6647C12.4683 20.6647 14.9541 20.6617 15.1918 20.6495C15.8579 20.6182 16.2447 20.5663 16.6723 20.4557C17.8517 20.1513 18.8281 19.3518 19.3595 18.2554C19.6267 17.7042 19.7622 17.1682 19.8235 16.3903C19.8368 16.2207 19.8424 13.5166 19.8424 10.8161C19.8424 8.11523 19.8364 5.41615 19.823 5.24654C19.761 4.45608 19.6255 3.92457 19.3496 3.36276C19.1233 2.90287 18.872 2.55942 18.5072 2.20827C17.8561 1.58619 17.0597 1.20761 16.1108 1.07072C15.6511 1.00424 15.5595 0.984553 13.2069 0.980469H10.0035Z" fill="url(#paint3_radial_1283_18264)"/>
</g>
<defs>
<radialGradient id="paint0_radial_1283_18264" cx="0" cy="0" r="1" gradientUnits="userSpaceOnUse" gradientTransform="translate(19.2068 10.2067) rotate(164.25) scale(12.5771 9.06119)">
<stop stop-color="#FF005F"/>
<stop offset="1" stop-color="#FC01D8"/>
</radialGradient>
<radialGradient id="paint1_radial_1283_18264" cx="0" cy="0" r="1" gradientUnits="userSpaceOnUse" gradientTransform="translate(5.38667 22.1808) rotate(-90) scale(15.7123 16.6704)">
<stop stop-color="#FFCC00"/>
<stop offset="0.1242" stop-color="#FFCC00"/>
<stop offset="0.5672" stop-color="#FE4A05"/>
<stop offset="0.6942" stop-color="#FF0F3F"/>
<stop offset="1" stop-color="#FE0657" stop-opacity="0"/>
</radialGradient>
<radialGradient id="paint2_radial_1283_18264" cx="0" cy="0" r="1" gradientUnits="userSpaceOnUse" gradientTransform="translate(10.4977 20.3871) rotate(-59.8703) scale(6.49718 8.45859)">
<stop stop-color="#FFCC00"/>
<stop offset="1" stop-color="#FFCC00" stop-opacity="0"/>
</radialGradient>
<radialGradient id="paint3_radial_1283_18264" cx="0" cy="0" r="1" gradientUnits="userSpaceOnUse" gradientTransform="translate(2.82893 1.782) rotate(164.274) scale(12.4376 4.23748)">
<stop stop-color="#780CFF"/>
<stop offset="1" stop-color="#820BFF" stop-opacity="0"/>
</radialGradient>
</defs>
</svg>
