<svg width="100" height="16" viewBox="0 0 100 16" fill="none" xmlns="http://www.w3.org/2000/svg">
<path d="M5.07556 3.91111L7.98667 1L10.8978 4.49334L14.9733 6.24L12.6445 10.3156V14.3911L7.98667 13.8089L3.91111 14.9733L3.32889 10.3156L1 6.24L5.07556 3.91111Z" fill="#FCEF7E"/>
<path d="M5.99775 3.38106C6.88296 1.79369 7.32522 1 7.98686 1C8.6485 1 9.09075 1.79369 9.97597 3.38106L10.2051 3.79188C10.4567 4.24322 10.5824 4.46889 10.778 4.61771C10.9737 4.76653 11.2182 4.82172 11.7073 4.93211L12.1516 5.03272C13.8704 5.42188 14.729 5.61611 14.9337 6.27356C15.1377 6.9303 14.5523 7.6157 13.3806 8.98579L13.0774 9.34002C12.7448 9.72917 12.5778 9.9241 12.5031 10.1644C12.4283 10.4055 12.4534 10.6654 12.5038 11.1845L12.5499 11.6575C12.7266 13.4859 12.8154 14.3998 12.2802 14.8057C11.745 15.2123 10.9401 14.8413 9.33179 14.1007L8.91469 13.9093C8.45776 13.6983 8.22929 13.5935 7.98686 13.5935C7.74442 13.5935 7.51595 13.6983 7.05902 13.9093L6.64262 14.1007C5.03358 14.8413 4.22871 15.2116 3.69423 14.8064C3.15835 14.3998 3.24708 13.4859 3.42385 11.6575L3.46996 11.1852C3.52026 10.6654 3.54542 10.4055 3.46996 10.1651C3.3959 9.9241 3.22892 9.72917 2.89635 9.34071L2.59313 8.98579C1.42146 7.6164 0.835977 6.931 1.03999 6.27356C1.2447 5.61611 2.10406 5.42118 3.82279 5.03272L4.26714 4.93211C4.75551 4.82172 4.99935 4.76653 5.19567 4.61771C5.3913 4.46889 5.51706 4.24322 5.76858 3.79188L5.99775 3.38106Z" stroke="black" stroke-width="1.74667"/>
<path d="M26.0345 3.91111L28.9457 1L31.8568 4.49334L35.9323 6.24L33.6034 10.3156V14.3911L28.9457 13.8089L24.8701 14.9733L24.2879 10.3156L21.959 6.24L26.0345 3.91111Z" fill="#FCEF7E"/>
<path d="M26.9567 3.38106C27.8419 1.79369 28.2842 1 28.9458 1C29.6075 1 30.0497 1.79369 30.935 3.38106L31.1641 3.79188C31.4156 4.24322 31.5414 4.46889 31.737 4.61771C31.9327 4.76653 32.1772 4.82172 32.6663 4.93211L33.1106 5.03272C34.8293 5.42188 35.688 5.61611 35.8927 6.27356C36.0967 6.9303 35.5112 7.6157 34.3396 8.98579L34.0363 9.34002C33.7038 9.72917 33.5368 9.9241 33.462 10.1644C33.3873 10.4055 33.4124 10.6654 33.4627 11.1845L33.5088 11.6575C33.6856 13.4859 33.7743 14.3998 33.2392 14.8057C32.704 15.2123 31.8991 14.8413 30.2908 14.1007L29.8737 13.9093C29.4167 13.6983 29.1883 13.5935 28.9458 13.5935C28.7034 13.5935 28.4749 13.6983 28.018 13.9093L27.6016 14.1007C25.9926 14.8413 25.1877 15.2116 24.6532 14.8064C24.1173 14.3998 24.2061 13.4859 24.3828 11.6575L24.4289 11.1852C24.4792 10.6654 24.5044 10.4055 24.4289 10.1651C24.3549 9.9241 24.1879 9.72917 23.8553 9.34071L23.5521 8.98579C22.3804 7.6164 21.795 6.931 21.999 6.27356C22.2037 5.61611 23.063 5.42118 24.7818 5.03272L25.2261 4.93211C25.7145 4.82172 25.9583 4.76653 26.1547 4.61771C26.3503 4.46889 26.476 4.24322 26.7276 3.79188L26.9567 3.38106Z" stroke="black" stroke-width="1.74667"/>
<path d="M46.9935 3.91111L49.9046 1L52.8158 4.49334L56.8913 6.24L54.5624 10.3156V14.3911L49.9046 13.8089L45.8291 14.9733L45.2469 10.3156L42.918 6.24L46.9935 3.91111Z" fill="#FCEF7E"/>
<path d="M47.9157 3.38106C48.8009 1.79369 49.2432 1 49.9048 1C50.5665 1 51.0087 1.79369 51.8939 3.38106L52.1231 3.79188C52.3746 4.24322 52.5004 4.46889 52.696 4.61771C52.8916 4.76653 53.1362 4.82172 53.6252 4.93211L54.0696 5.03272C55.7883 5.42188 56.647 5.61611 56.8517 6.27356C57.0557 6.9303 56.4702 7.6157 55.2986 8.98579L54.9953 9.34002C54.6628 9.72917 54.4958 9.9241 54.421 10.1644C54.3463 10.4055 54.3714 10.6654 54.4217 11.1845L54.4678 11.6575C54.6446 13.4859 54.7333 14.3998 54.1981 14.8057C53.663 15.2123 52.8581 14.8413 51.2498 14.1007L50.8327 13.9093C50.3757 13.6983 50.1473 13.5935 49.9048 13.5935C49.6624 13.5935 49.4339 13.6983 48.977 13.9093L48.5606 14.1007C46.9516 14.8413 46.1467 15.2116 45.6122 14.8064C45.0763 14.3998 45.1651 13.4859 45.3418 11.6575L45.3879 11.1852C45.4382 10.6654 45.4634 10.4055 45.3879 10.1651C45.3139 9.9241 45.1469 9.72917 44.8143 9.34071L44.5111 8.98579C43.3394 7.6164 42.7539 6.931 42.958 6.27356C43.1627 5.61611 44.022 5.42118 45.7408 5.03272L46.1851 4.93211C46.6735 4.82172 46.9173 4.76653 47.1136 4.61771C47.3093 4.46889 47.435 4.24322 47.6866 3.79188L47.9157 3.38106Z" stroke="black" stroke-width="1.74667"/>
<path d="M67.9535 3.91111L70.8646 1L73.7757 4.49334L77.8513 6.24L75.5224 10.3156V14.3911L70.8646 13.8089L66.789 14.9733L66.2068 10.3156L63.8779 6.24L67.9535 3.91111Z" fill="#FCEF7E"/>
<path d="M68.8757 3.38106C69.7609 1.79369 70.2031 1 70.8648 1C71.5264 1 71.9687 1.79369 72.8539 3.38106L73.0831 3.79188C73.3346 4.24322 73.4603 4.46889 73.656 4.61771C73.8516 4.76653 74.0961 4.82172 74.5852 4.93211L75.0296 5.03272C76.7483 5.42188 77.6069 5.61611 77.8117 6.27356C78.0157 6.9303 77.4302 7.6157 76.2585 8.98579L75.9553 9.34002C75.6227 9.72917 75.4557 9.9241 75.381 10.1644C75.3062 10.4055 75.3314 10.6654 75.3817 11.1845L75.4278 11.6575C75.6046 13.4859 75.6933 14.3998 75.1581 14.8057C74.6229 15.2123 73.8181 14.8413 72.2097 14.1007L71.7926 13.9093C71.3357 13.6983 71.1072 13.5935 70.8648 13.5935C70.6223 13.5935 70.3939 13.6983 69.937 13.9093L69.5205 14.1007C67.9115 14.8413 67.1066 15.2116 66.5722 14.8064C66.0363 14.3998 66.125 13.4859 66.3018 11.6575L66.3479 11.1852C66.3982 10.6654 66.4233 10.4055 66.3479 10.1651C66.2738 9.9241 66.1068 9.72917 65.7743 9.34071L65.4711 8.98579C64.2994 7.6164 63.7139 6.931 63.9179 6.27356C64.1226 5.61611 64.982 5.42118 66.7007 5.03272L67.1451 4.93211C67.6334 4.82172 67.8773 4.76653 68.0736 4.61771C68.2692 4.46889 68.395 4.24322 68.6465 3.79188L68.8757 3.38106Z" stroke="black" stroke-width="1.74667"/>
<path d="M88.9164 3.91111L91.8275 1L94.7386 4.49334L98.8142 6.24L96.4853 10.3156V14.3911L91.8275 13.8089L87.7519 14.9733L87.1697 10.3156L84.8408 6.24L88.9164 3.91111Z" fill="#FCEF7E"/>
<path d="M89.8386 3.38106C90.7238 1.79369 91.166 1 91.8277 1C92.4893 1 92.9316 1.79369 93.8168 3.38106L94.046 3.79188C94.2975 4.24322 94.4232 4.46889 94.6189 4.61771C94.8145 4.76653 95.059 4.82172 95.5481 4.93211L95.9924 5.03272C97.7112 5.42188 98.5698 5.61611 98.7745 6.27356C98.9786 6.9303 98.3931 7.6157 97.2214 8.98579L96.9182 9.34002C96.5856 9.72917 96.4186 9.9241 96.3439 10.1644C96.2691 10.4055 96.2943 10.6654 96.3446 11.1845L96.3907 11.6575C96.5674 13.4859 96.6562 14.3998 96.121 14.8057C95.5858 15.2123 94.781 14.8413 93.1726 14.1007L92.7555 13.9093C92.2986 13.6983 92.0701 13.5935 91.8277 13.5935C91.5852 13.5935 91.3568 13.6983 90.8998 13.9093L90.4834 14.1007C88.8744 14.8413 88.0695 15.2116 87.5351 14.8064C86.9992 14.3998 87.0879 13.4859 87.2647 11.6575L87.3108 11.1852C87.3611 10.6654 87.3862 10.4055 87.3108 10.1651C87.2367 9.9241 87.0697 9.72917 86.7372 9.34071L86.434 8.98579C85.2623 7.6164 84.6768 6.931 84.8808 6.27356C85.0855 5.61611 85.9449 5.42118 87.6636 5.03272L88.108 4.93211C88.5963 4.82172 88.8402 4.76653 89.0365 4.61771C89.2321 4.46889 89.3579 4.24322 89.6094 3.79188L89.8386 3.38106Z" stroke="black" stroke-width="1.74667"/>
</svg>
