<svg width="20" height="20" viewBox="0 0 20 20" fill="none" xmlns="http://www.w3.org/2000/svg">
<path d="M17.95 19C15.8667 19 13.8083 18.546 11.775 17.638C9.74167 16.73 7.89167 15.4423 6.225 13.775C4.55833 12.1077 3.271 10.2577 2.363 8.225C1.455 6.19233 1.00067 4.134 1 2.05C1 1.75 1.1 1.5 1.3 1.3C1.5 1.1 1.75 1 2.05 1H6.1C6.33333 1 6.54167 1.07933 6.725 1.238C6.90833 1.39667 7.01667 1.584 7.05 1.8L7.7 5.3C7.73333 5.56667 7.725 5.79167 7.675 5.975C7.625 6.15833 7.53333 6.31667 7.4 6.45L4.975 8.9C5.30833 9.51667 5.704 10.1123 6.162 10.687C6.62 11.2617 7.12433 11.816 7.675 12.35C8.19167 12.8667 8.73333 13.346 9.3 13.788C9.86667 14.23 10.4667 14.634 11.1 15L13.45 12.65C13.6 12.5 13.796 12.3877 14.038 12.313C14.28 12.2383 14.5173 12.2173 14.75 12.25L18.2 12.95C18.4333 13.0167 18.625 13.1377 18.775 13.313C18.925 13.4883 19 13.684 19 13.9V17.95C19 18.25 18.9 18.5 18.7 18.7C18.5 18.9 18.25 19 17.95 19ZM4.025 7L5.675 5.35L5.25 3H3.025C3.10833 3.68333 3.225 4.35833 3.375 5.025C3.525 5.69167 3.74167 6.35 4.025 7ZM12.975 15.95C13.625 16.2333 14.2877 16.4583 14.963 16.625C15.6383 16.7917 16.3173 16.9 17 16.95V14.75L14.65 14.275L12.975 15.95Z" fill="#1E1E1E" stroke="#1E1E1E" stroke-width="0.5"/>
</svg>
